<svg width="42" height="42" viewBox="0 0 42 42" fill="none" xmlns="http://www.w3.org/2000/svg">
<path d="M18.6836 26.2196H23.8558L22.8644 20.6596C23.4391 20.3722 23.8917 19.9556 24.2221 19.4096C24.5526 18.8637 24.7178 18.2602 24.7178 17.5994C24.7178 16.6511 24.3802 15.8394 23.7049 15.1641C23.0296 14.4889 22.2179 14.1512 21.2697 14.1512C20.3214 14.1512 19.5097 14.4889 18.8344 15.1641C18.1592 15.8394 17.8216 16.6511 17.8216 17.5994C17.8216 18.2602 17.9868 18.8637 18.3172 19.4096C18.6477 19.9556 19.1002 20.3722 19.6749 20.6596L18.6836 26.2196ZM21.2697 38.288C17.2756 37.2823 13.9784 34.9908 11.3779 31.4133C8.77746 27.8359 7.47723 23.8634 7.47723 19.4958V8.97908L21.2697 3.80692L35.0621 8.97908V19.4958C35.0621 23.8634 33.7619 27.8359 31.1614 31.4133C28.561 34.9908 25.2637 37.2823 21.2697 38.288ZM21.2697 34.6675C24.258 33.7193 26.7292 31.8228 28.6831 28.9781C30.637 26.1334 31.614 22.9727 31.614 19.4958V11.3497L21.2697 7.47053L10.9253 11.3497V19.4958C10.9253 22.9727 11.9023 26.1334 13.8562 28.9781C15.8102 31.8228 18.2813 33.7193 21.2697 34.6675Z" fill="url(#paint0_linear_8_52)"/>
<defs>
<linearGradient id="paint0_linear_8_52" x1="21.125" y1="-1.66665" x2="21.2697" y2="42.097" gradientUnits="userSpaceOnUse">
<stop stop-color="#FAFAFA" stop-opacity="0.7"/>
<stop offset="1" stop-color="#4674A5"/>
</linearGradient>
</defs>
</svg>
