<svg width="25" height="25" viewBox="0 0 25 25" fill="none" xmlns="http://www.w3.org/2000/svg">
<g clip-path="url(#clip0_59_91)">
<path d="M23.1857 6.89999H14.6143C14.1409 6.89999 13.7571 7.28375 13.7571 7.75714V13.7571C13.7571 14.2305 14.1409 14.6143 14.6143 14.6143H23.1857C23.659 14.6143 24.0429 14.2305 24.0429 13.7571V7.75714C24.0429 7.28375 23.659 6.89999 23.1857 6.89999Z" stroke="#FAFAFA" stroke-width="1.5" stroke-linecap="round" stroke-linejoin="round"/>
<path d="M15.4714 6.9V5.18571C15.4714 4.2764 15.8327 3.40433 16.4756 2.76135C17.1186 2.11837 17.9907 1.75714 18.9 1.75714C19.8093 1.75714 20.6813 2.11837 21.3243 2.76135C21.9674 3.40433 22.3286 4.2764 22.3286 5.18571V6.9" stroke="#FAFAFA" stroke-width="1.5" stroke-linecap="round" stroke-linejoin="round"/>
<path d="M1.75714 19.757L5.94639 23.2479C6.56256 23.7614 7.33925 24.0427 8.14131 24.0427H19.1858C19.9747 24.0427 20.6143 23.4031 20.6143 22.614C20.6143 21.0362 19.3351 19.757 17.7571 19.757H10.0788" stroke="#FAFAFA" stroke-width="1.5" stroke-linecap="round" stroke-linejoin="round"/>
<path d="M6.9 18.0426L8.18571 19.3284C8.89579 20.0384 10.0471 20.0384 10.7571 19.3284C11.4672 18.6183 11.4672 17.467 10.7571 16.7569L8.76135 14.7611C8.11836 14.1181 7.2463 13.7569 6.33698 13.7569H1.75714" stroke="#FAFAFA" stroke-width="1.5" stroke-linecap="round" stroke-linejoin="round"/>
</g>
<defs>
<clipPath id="clip0_59_91">
<rect width="24" height="24" fill="white" transform="translate(0.900024 0.899994)"/>
</clipPath>
</defs>
</svg>
