<svg width="24" height="24" viewBox="0 0 24 24" fill="none" xmlns="http://www.w3.org/2000/svg">
<path d="M9.26996 22.256V13.751C9.26996 13.2139 9.48331 12.6989 9.86307 12.3191C10.2428 11.9394 10.7579 11.726 11.295 11.726V11.726C11.832 11.726 12.3471 11.9394 12.7268 12.3191C13.1066 12.6989 13.32 13.2139 13.32 13.751V18.206H16.56C17.4193 18.206 18.2434 18.5474 18.851 19.155C19.4586 19.7626 19.8 20.5867 19.8 21.446V22.256" stroke="#FAFAFA" stroke-width="1.8" stroke-linecap="round" stroke-linejoin="round"/>
<path d="M5.85178 14.3342C4.77618 13.2578 4.04387 11.8867 3.74742 10.3941C3.45097 8.90161 3.60369 7.35469 4.18627 5.94895C4.76885 4.5432 5.75514 3.34174 7.02046 2.49646C8.28577 1.65117 9.77329 1.20001 11.295 1.20001C12.8167 1.20001 14.3042 1.65117 15.5695 2.49646C16.8348 3.34174 17.8211 4.5432 18.4037 5.94895C18.9863 7.35469 19.139 8.90161 18.8425 10.3941C18.5461 11.8867 17.8138 13.2578 16.7382 14.3342" stroke="#FAFAFA" stroke-width="1.8" stroke-linecap="round" stroke-linejoin="round"/>
</svg>
