<svg width="24" height="24" viewBox="0 0 24 24" fill="none" xmlns="http://www.w3.org/2000/svg">
<g clip-path="url(#clip0_59_102)">
<path d="M8.61482 8.61477C10.7176 8.61477 12.4222 6.91014 12.4222 4.80738C12.4222 2.70462 10.7176 1 8.61482 1C6.51206 1 4.80743 2.70462 4.80743 4.80738C4.80743 6.91014 6.51206 8.61477 8.61482 8.61477Z" stroke="#FAFAFA" stroke-width="1.48065" stroke-linecap="round" stroke-linejoin="round"/>
<path d="M10.307 11.3392C9.19115 11.0816 8.03153 11.0795 6.9148 11.3332C5.79807 11.5869 4.75312 12.0897 3.8581 12.8041C2.96307 13.5185 2.24111 14.426 1.74619 15.4587C1.25127 16.4914 0.996197 17.6226 1.00004 18.7678V21.3061H10.307" stroke="#FAFAFA" stroke-width="1.48065" stroke-linecap="round" stroke-linejoin="round"/>
<path d="M18.2094 22.9475C18.0235 23.0147 17.82 23.0147 17.6341 22.9475C16.2228 22.3884 15.0119 21.4186 14.1581 20.1635C13.3043 18.9084 12.847 17.426 12.8452 15.908V13.6913C12.8378 13.5783 12.8545 13.4649 12.8944 13.3589C12.9343 13.2528 12.9963 13.1565 13.0765 13.0764C13.1566 12.9963 13.2529 12.9342 13.3589 12.8944C13.4649 12.8545 13.5783 12.8377 13.6913 12.8452H22.1522C22.2652 12.8377 22.3786 12.8545 22.4846 12.8944C22.5906 12.9342 22.6869 12.9963 22.7671 13.0764C22.8472 13.1565 22.9092 13.2528 22.9491 13.3589C22.989 13.4649 23.0057 13.5783 22.9983 13.6913V15.908C22.9965 17.426 22.5392 18.9084 21.6854 20.1635C20.8316 21.4186 19.6207 22.3884 18.2094 22.9475V22.9475Z" stroke="#FAFAFA" stroke-width="1.48065" stroke-linecap="round" stroke-linejoin="round"/>
</g>
<defs>
<clipPath id="clip0_59_102">
<rect width="24" height="24" fill="white"/>
</clipPath>
</defs>
</svg>
