<svg width="25" height="25" viewBox="0 0 25 25" fill="none" xmlns="http://www.w3.org/2000/svg">
<path d="M6.43848 12.9V8.6515C6.45109 7.8164 6.62837 6.99199 6.96015 6.22552C7.29192 5.45905 7.77168 4.76557 8.37193 4.18483C8.97218 3.60409 9.68112 3.1475 10.4581 2.84122C11.2351 2.53494 12.065 2.38499 12.9 2.39996V2.39996C13.7351 2.38499 14.5649 2.53494 15.3419 2.84122C16.1189 3.1475 16.8279 3.60409 17.4281 4.18483C18.0284 4.76557 18.5081 5.45905 18.8399 6.22552C19.1717 6.99199 19.3489 7.8164 19.3616 8.6515V12.9" stroke="#FAFAFA" stroke-width="0.950226" stroke-linecap="round" stroke-linejoin="round"/>
<path d="M4.01541 10.4769H5.63079C5.84501 10.4769 6.05045 10.562 6.20192 10.7135C6.35339 10.8649 6.43849 11.0704 6.43849 11.2846V16.1307C6.43849 16.3449 6.35339 16.5504 6.20192 16.7019C6.05045 16.8533 5.84501 16.9384 5.63079 16.9384H4.01541C3.58698 16.9384 3.1761 16.7682 2.87316 16.4653C2.57022 16.1623 2.40002 15.7515 2.40002 15.323V12.0923C2.40002 11.6638 2.57022 11.253 2.87316 10.95C3.1761 10.6471 3.58698 10.4769 4.01541 10.4769V10.4769Z" stroke="#FAFAFA" stroke-width="0.950226" stroke-linecap="round" stroke-linejoin="round"/>
<path d="M21.7846 16.9384H20.1693C19.955 16.9384 19.7496 16.8533 19.5981 16.7019C19.4467 16.5504 19.3616 16.345 19.3616 16.1307V11.2846C19.3616 11.0704 19.4467 10.8649 19.5981 10.7135C19.7496 10.562 19.955 10.4769 20.1693 10.4769H21.7846C22.2131 10.4769 22.6239 10.6471 22.9269 10.95C23.2298 11.253 23.4 11.6638 23.4 12.0923V15.323C23.4 15.7515 23.2298 16.1624 22.9269 16.4653C22.6239 16.7682 22.2131 16.9384 21.7846 16.9384V16.9384Z" stroke="#FAFAFA" stroke-width="0.950226" stroke-linecap="round" stroke-linejoin="round"/>
<path d="M16.1309 21.3807C16.9877 21.3807 17.8095 21.0404 18.4154 20.4345C19.0212 19.8286 19.3616 19.0068 19.3616 18.15V14.5154" stroke="#FAFAFA" stroke-width="0.950226" stroke-linecap="round" stroke-linejoin="round"/>
<path d="M16.1309 21.3807C16.1309 21.9163 15.9181 22.4299 15.5394 22.8086C15.1608 23.1872 14.6472 23.4 14.1116 23.4H11.6885C11.153 23.4 10.6394 23.1872 10.2607 22.8086C9.88205 22.4299 9.66931 21.9163 9.66931 21.3807C9.66931 20.8452 9.88205 20.3316 10.2607 19.9529C10.6394 19.5743 11.153 19.3615 11.6885 19.3615H14.1116C14.6472 19.3615 15.1608 19.5743 15.5394 19.9529C15.9181 20.3316 16.1309 20.8452 16.1309 21.3807Z" stroke="#FAFAFA" stroke-width="0.950226" stroke-linecap="round" stroke-linejoin="round"/>
</svg>
