<svg width="425" height="80" viewBox="0 0 425 80" fill="none" xmlns="http://www.w3.org/2000/svg">
<g clip-path="url(#clip0_103_1021)">
<mask id="mask0_103_1021" style="mask-type:luminance" maskUnits="userSpaceOnUse" x="0" y="0" width="426" height="80">
<path d="M425.455 0H0V80H425.455V0Z" fill="white"/>
</mask>
<g mask="url(#mask0_103_1021)">
<path d="M108.297 57.7196V42.2221C108.297 37.5578 109.817 33.9468 115.236 33.9468C117.413 33.9468 119.237 34.6991 120.452 36.5548C121.579 38.3506 121.616 40.0525 121.617 42.0695V57.7196H126.884V42.2221C126.884 37.6581 128.099 33.9468 133.569 33.9468C138.735 33.9468 140.203 37.909 140.203 42.2723V57.7196H145.47V40.9683C145.47 33.7963 141.47 29.1822 134.024 29.1822C129.922 29.1822 126.934 30.4361 124.757 33.8465C123.288 30.7369 119.338 29.1822 116.046 29.1822C112.349 29.1822 110.323 30.2354 107.994 32.9437H107.892V29.9345H103.03V57.7196H108.297ZM163.652 58.4218C172.16 58.4218 178.794 51.651 178.794 43.7268C178.794 35.5016 171.856 29.1822 163.652 29.1822C155.549 29.1822 148.509 35.4514 148.509 43.6265C148.509 51.8517 155.397 58.4218 163.652 58.4218ZM163.652 53.6572C158.182 53.6572 153.776 49.1935 153.776 43.7769C153.776 38.3603 158.182 33.9468 163.652 33.9468C169.121 33.9468 173.527 38.3102 173.527 43.7268C173.527 49.1433 169.172 53.6572 163.652 53.6572ZM187.151 57.7196V42.5732C187.151 37.909 189.379 33.9468 194.545 33.9468C200.116 33.9468 201.534 37.909 201.534 42.6234V57.7196H206.801V41.2692C206.801 38.8117 206.395 36.2539 205.028 34.1474C202.851 30.7369 199.103 29.1822 195.102 29.1822C191.861 29.1822 188.923 30.2354 186.897 32.8936H186.797V29.9345H181.884V57.7196H187.151ZM224.982 58.4218C233.49 58.4218 240.125 51.651 240.125 43.7268C240.125 35.5016 233.186 29.1822 224.982 29.1822C216.879 29.1822 209.84 35.4514 209.84 43.6265C209.84 51.8517 216.727 58.4218 224.982 58.4218ZM224.982 53.6572C219.513 53.6572 215.107 49.1935 215.107 43.7769C215.107 38.3603 219.513 33.9468 224.982 33.9468C230.452 33.9468 234.858 38.3102 234.858 43.7268C234.858 49.1433 230.502 53.6572 224.982 53.6572ZM256.179 58.4218C262.611 58.4218 267.929 54.5098 270.005 48.5415H264.13C262.662 51.7514 259.775 53.6572 256.179 53.6572C250.558 53.6572 247.064 49.043 247.064 43.7769C247.064 38.3102 250.507 33.9468 256.281 33.9468C260.028 33.9468 262.611 35.9028 264.181 39.1628H270.005C268.435 33.1945 262.257 29.1822 256.23 29.1822C247.925 29.1822 241.797 35.652 241.797 43.7769C241.797 51.9018 247.823 58.4218 256.179 58.4218ZM277.248 57.7196V42.5732C277.248 37.909 279.476 33.9468 284.642 33.9468C290.212 33.9468 291.63 37.909 291.63 42.6234V57.7196H296.897V41.2692C296.897 38.8117 296.492 36.2539 295.125 34.1474C292.947 30.7369 289.2 29.1822 285.198 29.1822C282.059 29.1822 279.172 30.1853 277.349 32.8936H277.248V20.606H271.981V57.7196H277.248ZM306.571 57.7196V42.5231C306.571 40.0154 307.178 36.8056 309.66 35.5517C310.673 35 312.294 34.5486 313.459 34.5486V29.1822C310.622 29.2825 308.04 30.0348 306.318 32.4422H306.216V29.9345H301.304V57.7196H306.571ZM328.551 58.4218C337.059 58.4218 343.693 51.651 343.693 43.7268C343.693 35.5016 336.755 29.1822 328.551 29.1822C320.448 29.1822 313.408 35.4514 313.408 43.6265C313.408 51.8517 320.296 58.4218 328.551 58.4218ZM328.551 53.6572C323.081 53.6572 318.675 49.1935 318.675 43.7769C318.675 38.3603 323.081 33.9468 328.551 33.9468C334.02 33.9468 338.426 38.3102 338.426 43.7268C338.426 49.1433 334.071 53.6572 328.551 53.6572ZM352.101 57.7196V42.2221C352.101 37.5578 353.62 33.9468 359.039 33.9468C361.216 33.9468 363.04 34.6991 364.255 36.5548C365.42 38.4105 365.42 40.1659 365.42 42.2723V57.7196H370.687V42.2221C370.687 37.6581 371.903 33.9468 377.372 33.9468C382.537 33.9468 384.006 37.909 384.006 42.2723V57.7196H389.273V40.9683C389.273 33.7963 385.272 29.1822 377.828 29.1822C373.726 29.1822 370.738 30.4361 368.56 33.8465C367.091 30.7369 363.141 29.1822 359.849 29.1822C356.152 29.1822 354.126 30.2354 351.797 32.9437H351.696V29.9345H346.834V57.7196H352.101ZM406.644 58.4218C412.772 58.4218 417.989 54.6603 420.116 48.9929H414.849C413.329 51.9018 410.139 53.6572 406.847 53.6572C402.238 53.6572 398.694 50.3972 397.63 46.084H420.875C420.977 45.2314 421.027 44.3286 421.027 43.476C421.027 35.652 414.697 29.1822 406.746 29.1822C398.541 29.1822 392.363 35.7523 392.363 43.7769C392.363 51.5507 398.643 58.4218 406.644 58.4218ZM415.76 42.0717H397.63C397.934 37.5077 402.137 33.9468 406.695 33.9468C411.253 33.9468 415.457 37.5077 415.76 42.0717Z" fill="white"/>
<path fill-rule="evenodd" clip-rule="evenodd" d="M37.5758 3.63098C57.6589 3.63098 73.9394 19.9115 73.9394 39.9946C73.9394 60.0777 57.6589 76.3582 37.5758 76.3582C17.4927 76.3582 1.21216 60.0777 1.21216 39.9946C1.21216 19.9115 17.4927 3.63098 37.5758 3.63098ZM37.5781 9.22538L37.5758 26.0086C29.8515 26.0086 23.5898 32.2703 23.5898 39.9946C23.5898 47.7189 29.8515 53.9806 37.5758 53.9806V70.7628L38.282 70.7559C54.9492 70.3805 68.345 56.7519 68.345 39.9946C68.345 23.002 54.5704 9.22662 37.5781 9.22538ZM37.5758 26.3582C45.1069 26.3582 51.2122 32.4635 51.2122 39.9946C51.2122 47.3546 45.3813 53.3527 38.087 53.6216L37.5758 53.631V26.3582Z" fill="white"/>
</g>
</g>
<defs>
<clipPath id="clip0_103_1021">
<rect width="425" height="80" fill="white"/>
</clipPath>
</defs>
</svg>
