<svg width="316" height="80" viewBox="0 0 316 80" fill="none" xmlns="http://www.w3.org/2000/svg">
<g clip-path="url(#clip0_103_1002)">
<path fill-rule="evenodd" clip-rule="evenodd" d="M11.8409 22.9241C17.131 15.8085 25.6022 11.1985 35.1501 11.1985C44.754 11.1985 53.2683 15.8629 58.5519 23.0499C58.3271 23.2811 58.1222 23.5208 57.937 23.7601C56.9689 25.0134 56.2408 26.6278 55.6575 28.2672C54.4826 31.5644 53.5865 35.8712 52.7568 39.9041L52.6831 40.2668C51.8552 44.2923 51.0858 48.0361 50.1555 50.8153C49.7375 52.0639 49.3411 52.9466 48.9896 53.512C48.6229 52.9421 48.2067 52.0486 47.7662 50.7821C46.7712 47.9231 45.9343 44.0344 45.0471 39.8822L45.0184 39.7462C44.1659 35.7579 43.2615 31.5261 42.134 28.2869C41.5675 26.6597 40.8724 25.0615 39.9634 23.8198C39.0711 22.6012 37.586 21.2259 35.414 21.2259C33.2555 21.2259 31.7635 22.5863 30.8585 23.7912C29.9318 25.0249 29.2094 26.6165 28.6142 28.2445C27.4158 31.5227 26.4359 35.811 25.524 39.8495L25.4298 40.2668C24.5268 44.2673 23.6826 48.0074 22.7244 50.792C22.3586 51.8553 22.0134 52.6643 21.701 53.2423C21.3956 52.667 21.0591 51.8634 20.7032 50.809C19.784 48.0838 18.9787 44.4484 18.1138 40.5437L17.9624 39.8604C17.0662 35.8194 16.094 31.5234 14.8784 28.2348C14.2745 26.6008 13.5358 25.0012 12.5798 23.7618C12.3634 23.4812 12.1173 23.1965 11.8409 22.9241ZM8.63923 28.3877C8.89119 28.8853 9.1577 29.5019 9.4333 30.2475C10.4854 33.094 11.3769 36.9781 12.2948 41.1173L12.4734 41.9237C13.3092 45.7005 14.1786 49.6292 15.2026 52.6643C15.7472 54.2787 16.4049 55.8598 17.2508 57.0886C18.0507 58.2508 19.4858 59.752 21.6924 59.752C23.8927 59.752 25.3312 58.258 26.1366 57.1012C26.9897 55.8751 27.6582 54.2958 28.2139 52.6805C29.2791 49.5852 30.1859 45.5645 31.0539 41.7165L31.1866 41.1281C32.1218 36.9865 33.0221 33.0946 34.0666 30.2378C34.5504 28.9142 35.0035 27.9921 35.3978 27.4201C35.7716 27.9872 36.1986 28.8946 36.6515 30.1955C37.6467 33.0545 38.4828 36.9432 39.3702 41.0954L39.3992 41.2314C40.2515 45.2197 41.1559 49.4516 42.2835 52.6904C42.8499 54.3183 43.545 55.9165 44.4541 57.1578C45.3465 58.3767 46.8314 59.752 49.0031 59.752C51.1865 59.752 52.666 58.3641 53.5478 57.1344C54.4431 55.8868 55.1164 54.2832 55.6602 52.658C56.7056 49.5365 57.537 45.4862 58.3289 41.633L58.4431 41.0735C59.2961 36.9263 60.115 33.053 61.1262 30.2151C61.3456 29.5977 61.5613 29.0713 61.7671 28.6292C63.3168 32.1807 64.1761 36.1024 64.1761 40.2248C64.1761 56.2553 51.1811 69.2513 35.1501 69.2513C19.1193 69.2513 6.12382 56.2553 6.12382 40.2248C6.12382 36.0088 7.02269 32.0027 8.63923 28.3877ZM35.1501 5.39331C15.9132 5.39331 0.318604 20.9879 0.318604 40.2248C0.318604 59.4616 15.9132 75.0562 35.1501 75.0562C54.3874 75.0562 69.9811 59.4616 69.9811 40.2248C69.9811 20.9879 54.3874 5.39331 35.1501 5.39331ZM35.8136 26.9342C35.8136 26.9349 35.8069 26.9403 35.7933 26.9482C35.8068 26.9374 35.8136 26.9334 35.8136 26.9342ZM35.0113 26.9381C34.9978 26.9298 34.9911 26.9242 34.9911 26.9235C34.9911 26.9228 34.9979 26.9269 35.0113 26.9381ZM48.5617 54.063C48.5617 54.063 48.568 54.0567 48.5806 54.0486C48.568 54.0594 48.5617 54.0639 48.5617 54.063ZM49.4058 54.0396C49.4193 54.0477 49.4265 54.0531 49.4265 54.054C49.4265 54.0549 49.4193 54.0504 49.4058 54.0396ZM21.0976 54.1151C21.0975 54.1142 21.1058 54.1061 21.1226 54.0944C21.106 54.1097 21.0976 54.116 21.0976 54.1151ZM22.2732 54.0998C22.2898 54.1115 22.2981 54.1196 22.2981 54.1205C22.298 54.1214 22.2897 54.116 22.2732 54.0998Z" fill="white"/>
<path d="M89.2143 60.8458L80.7676 31.9531H88.1662L93.1757 52.7487L99.0004 31.9531H107.272L113.097 52.7487L118.165 31.9531H125.563L117.059 60.8458H109.311L103.136 39.2346L96.9617 60.8458H89.2143Z" fill="white"/>
<path d="M136.419 61.5451C133.933 61.5451 131.895 61.1559 130.303 60.3793C128.711 59.564 127.526 58.4961 126.75 57.1757C125.973 55.8552 125.585 54.399 125.585 52.8071C125.585 50.1275 126.633 47.9528 128.73 46.2829C130.827 44.6131 133.973 43.7781 138.167 43.7781H145.507V43.079C145.507 41.0986 144.943 39.6423 143.818 38.7102C142.691 37.7782 141.293 37.3122 139.623 37.3122C138.109 37.3122 136.788 37.6811 135.662 38.419C134.536 39.1181 133.836 40.1665 133.565 41.5645H126.283C126.478 39.4675 127.177 37.6423 128.38 36.0889C129.623 34.5356 131.215 33.3511 133.157 32.5357C135.099 31.6813 137.274 31.2542 139.681 31.2542C143.798 31.2542 147.04 32.2832 149.409 34.3414C151.778 36.3996 152.963 39.3122 152.963 43.079V60.8458H146.613L145.915 56.186C145.06 57.7393 143.856 59.0202 142.303 60.0305C140.788 61.0399 138.827 61.5451 136.419 61.5451ZM138.109 55.7195C140.244 55.7195 141.895 55.0202 143.06 53.6224C144.263 52.2247 145.021 50.4961 145.332 48.4381H138.982C137.001 48.4381 135.585 48.8071 134.73 49.5449C133.876 50.244 133.448 51.1182 133.448 52.1662C133.448 53.2925 133.876 54.1662 134.73 54.7874C135.585 55.4085 136.71 55.7195 138.109 55.7195Z" fill="white"/>
<path d="M164.7 60.8458L154.099 31.9531H161.904L169.244 53.7977L176.583 31.9531H184.389L173.729 60.8458H164.7Z" fill="white"/>
<path d="M199.378 61.5451C196.466 61.5451 193.883 60.9231 191.631 59.6808C189.379 58.4377 187.612 56.6903 186.33 54.4377C185.048 52.186 184.408 49.5838 184.408 46.6324C184.408 43.6422 185.029 40.9821 186.272 38.652C187.553 36.3219 189.301 34.5162 191.515 33.2346C193.766 31.9143 196.407 31.2542 199.436 31.2542C202.272 31.2542 204.777 31.8755 206.951 33.1182C209.126 34.3608 210.815 36.0695 212.019 38.2443C213.261 40.3801 213.883 42.7684 213.883 45.4091C213.883 45.8364 213.863 46.2829 213.825 46.7489C213.825 47.215 213.805 47.7004 213.766 48.2052H191.806C191.961 50.4575 192.738 52.2247 194.136 53.5065C195.572 54.7874 197.301 55.4283 199.321 55.4283C200.834 55.4283 202.097 55.0984 203.107 54.4377C204.155 53.7393 204.931 52.8458 205.437 51.7581H213.01C212.466 53.5838 211.552 55.2539 210.272 56.7685C209.028 58.2435 207.475 59.4085 205.611 60.2633C203.786 61.1172 201.708 61.5451 199.378 61.5451ZM199.436 37.3122C197.612 37.3122 196 37.8365 194.601 38.885C193.204 39.8947 192.31 41.448 191.922 43.5451H206.31C206.193 41.6422 205.495 40.1277 204.213 39.0015C202.931 37.8754 201.339 37.3122 199.436 37.3122Z" fill="white"/>
<path d="M217.824 60.8459V18.9049H225.28V60.8459H217.824Z" fill="white"/>
<path d="M244.607 61.5451C241.694 61.5451 239.112 60.9231 236.859 59.6808C234.608 58.4377 232.84 56.6903 231.559 54.4377C230.277 52.186 229.637 49.5838 229.637 46.6324C229.637 43.6422 230.258 40.9821 231.5 38.652C232.782 36.3219 234.529 34.5162 236.743 33.2346C238.996 31.9143 241.636 31.2542 244.665 31.2542C247.5 31.2542 250.005 31.8755 252.18 33.1182C254.354 34.3608 256.044 36.0695 257.247 38.2443C258.49 40.3801 259.112 42.7684 259.112 45.4091C259.112 45.8364 259.092 46.2829 259.053 46.7489C259.053 47.215 259.034 47.7004 258.995 48.2052H237.034C237.19 50.4575 237.967 52.2247 239.364 53.5065C240.801 54.7874 242.529 55.4283 244.549 55.4283C246.063 55.4283 247.326 55.0984 248.335 54.4377C249.383 53.7393 250.16 52.8458 250.665 51.7581H258.238C257.694 53.5838 256.781 55.2539 255.5 56.7685C254.257 58.2435 252.704 59.4085 250.839 60.2633C249.015 61.1172 246.937 61.5451 244.607 61.5451ZM244.665 37.3122C242.84 37.3122 241.229 37.8365 239.83 38.885C238.432 39.8947 237.539 41.448 237.15 43.5451H251.539C251.422 41.6422 250.723 40.1277 249.442 39.0015C248.16 37.8754 246.568 37.3122 244.665 37.3122Z" fill="white"/>
<path d="M274.994 61.5451C272.431 61.5451 270.179 61.137 268.237 60.3217C266.295 59.4669 264.742 58.302 263.577 56.826C262.412 55.351 261.713 53.6422 261.479 51.7006H268.994C269.227 52.826 269.849 53.7977 270.858 54.613C271.906 55.3896 273.247 55.7779 274.877 55.7779C276.509 55.7779 277.693 55.448 278.431 54.7874C279.207 54.1276 279.595 53.3698 279.595 52.5159C279.595 51.2728 279.053 50.4377 277.965 50.011C276.877 49.5449 275.363 49.0984 273.421 48.6712C272.179 48.3993 270.917 48.0692 269.635 47.6809C268.353 47.2926 267.169 46.8071 266.082 46.2247C265.033 45.6033 264.179 44.8266 263.518 43.8946C262.858 42.9237 262.528 41.7393 262.528 40.3412C262.528 37.7782 263.538 35.623 265.558 33.8755C267.615 32.1279 270.489 31.2542 274.179 31.2542C277.596 31.2542 280.315 32.0502 282.333 33.6424C284.392 35.2346 285.615 37.4287 286.004 40.2248H278.955C278.528 38.0889 276.916 37.021 274.12 37.021C272.723 37.021 271.635 37.2928 270.858 37.8365C270.12 38.3802 269.752 39.0597 269.752 39.8753C269.752 40.7297 270.315 41.4092 271.441 41.9141C272.567 42.4189 274.062 42.8849 275.926 43.3121C277.945 43.7781 279.79 44.3023 281.46 44.8849C283.168 45.4285 284.528 46.2635 285.538 47.3897C286.547 48.477 287.052 50.0498 287.052 52.1078C287.091 53.8948 286.625 55.5056 285.654 56.9429C284.683 58.3793 283.285 59.5056 281.46 60.3217C279.635 61.137 277.479 61.5451 274.994 61.5451Z" fill="white"/>
<path d="M303.268 61.5451C300.706 61.5451 298.453 61.137 296.511 60.3217C294.57 59.4669 293.017 58.302 291.852 56.826C290.687 55.351 289.987 53.6422 289.755 51.7006H297.269C297.502 52.826 298.123 53.7977 299.133 54.613C300.182 55.3896 301.521 55.7779 303.152 55.7779C304.783 55.7779 305.968 55.448 306.706 54.7874C307.482 54.1276 307.871 53.3698 307.871 52.5159C307.871 51.2728 307.327 50.4377 306.239 50.011C305.152 49.5449 303.638 49.0984 301.696 48.6712C300.453 48.3993 299.191 48.0692 297.909 47.6809C296.628 47.2926 295.444 46.8071 294.356 46.2247C293.308 45.6033 292.453 44.8266 291.793 43.8946C291.133 42.9237 290.803 41.7393 290.803 40.3412C290.803 37.7782 291.813 35.623 293.832 33.8755C295.89 32.1279 298.764 31.2542 302.453 31.2542C305.871 31.2542 308.589 32.0502 310.609 33.6424C312.666 35.2346 313.889 37.4287 314.278 40.2248H307.23C306.803 38.0889 305.191 37.021 302.395 37.021C300.997 37.021 299.909 37.2928 299.133 37.8365C298.395 38.3802 298.026 39.0597 298.026 39.8753C298.026 40.7297 298.589 41.4092 299.715 41.9141C300.841 42.4189 302.336 42.8849 304.2 43.3121C306.22 43.7781 308.065 44.3023 309.735 44.8849C311.444 45.4285 312.803 46.2635 313.812 47.3897C314.822 48.477 315.327 50.0498 315.327 52.1078C315.365 53.8948 314.9 55.5056 313.929 56.9429C312.957 58.3793 311.56 59.5056 309.735 60.3217C307.909 61.137 305.754 61.5451 303.268 61.5451Z" fill="white"/>
</g>
<defs>
<clipPath id="clip0_103_1002">
<rect width="315.506" height="80" fill="white"/>
</clipPath>
</defs>
</svg>
