<svg width="269" height="80" viewBox="0 0 269 80" fill="none" xmlns="http://www.w3.org/2000/svg">
<path d="M108.11 58.3226C118.462 58.3226 123.366 50.5129 123.366 41.4318C123.366 41.0686 123.366 40.6599 123.321 40.2967H106.748V43.9291H119.189C118.508 49.9226 115.148 54.5994 108.11 54.5994C100.3 54.5994 96.7137 48.6058 96.7137 41.4318C96.7137 34.2578 100.3 28.2642 108.11 28.2642C113.831 28.2642 117.282 31.488 118.69 36.0286H122.821C121.141 29.4448 116.329 24.541 108.11 24.541C97.7581 24.541 92.5359 32.3507 92.5359 41.4318C92.5359 50.5129 97.7581 58.3226 108.11 58.3226ZM128.355 57.7778H132.17V45.1551C132.17 39.2523 135.439 37.5723 139.435 37.5723H141.296V33.8945H139.525C136.665 33.8945 133.895 34.7572 131.988 38.1172V34.1669H128.355V57.7778ZM160.548 57.7778H164.09V40.4329C164.09 36.2556 161.275 33.6221 155.19 33.6221C150.195 33.6221 145.474 35.7107 145.291 41.4318H149.106C149.288 37.8448 152.375 36.9821 155.19 36.9821C158.459 36.9821 160.366 37.981 160.366 40.7962V42.6123L152.965 44.0199C147.699 45.0188 144.475 47.1983 144.475 51.3756C144.475 55.8253 147.699 58.3226 153.011 58.3226C155.78 58.3226 158.505 57.4599 160.548 54.8264V57.7778ZM148.425 51.2848C148.425 48.6058 150.468 47.8794 153.51 47.2437L160.366 45.8362V48.4242C160.366 53.0102 156.643 54.9626 153.193 54.9626C149.833 54.9626 148.425 53.4642 148.425 51.2848ZM185.372 42.6123V57.7778H189.14V42.2491C189.14 38.0718 186.734 33.6221 180.74 33.6221C177.244 33.6221 174.747 35.3474 173.158 37.5723V34.1669H169.525V57.7778H173.339V44.5648C173.339 37.8448 178.379 37.0729 180.014 37.0729C183.647 37.0729 185.372 39.3432 185.372 42.6123ZM209.921 57.7778H213.463V40.4329C213.463 36.2556 210.648 33.6221 204.563 33.6221C199.569 33.6221 194.846 35.7107 194.665 41.4318H198.479C198.66 37.8448 201.748 36.9821 204.563 36.9821C207.833 36.9821 209.739 37.981 209.739 40.7962V42.6123L202.339 44.0199C197.071 45.0188 193.848 47.1983 193.848 51.3756C193.848 55.8253 197.071 58.3226 202.384 58.3226C205.154 58.3226 207.878 57.4599 209.921 54.8264V57.7778ZM197.798 51.2848C197.798 48.6058 199.841 47.8794 202.883 47.2437L209.739 45.8362V48.4242C209.739 53.0102 206.016 54.9626 202.565 54.9626C199.205 54.9626 197.798 53.4642 197.798 51.2848ZM240.421 57.7778V25.0858H236.607V37.5269C234.927 35.0751 232.293 33.6221 228.797 33.6221C221.714 33.6221 217.809 38.8891 217.809 45.9723C217.809 53.0556 221.714 58.3226 228.797 58.3226C232.429 58.3226 235.108 56.7334 236.788 54.1453V57.7778H240.421ZM221.804 45.9723C221.804 40.7962 224.257 37.0729 229.251 37.0729C234.245 37.0729 236.698 40.7962 236.698 45.9723C236.698 51.1486 234.245 54.8718 229.251 54.8718C224.257 54.8718 221.804 51.1486 221.804 45.9723ZM261.201 57.7778H264.742V40.4329C264.742 36.2556 261.927 33.6221 255.843 33.6221C250.849 33.6221 246.126 35.7107 245.945 41.4318H249.759C249.94 37.8448 253.027 36.9821 255.843 36.9821C259.112 36.9821 261.019 37.981 261.019 40.7962V42.6123L253.618 44.0199C248.351 45.0188 245.127 47.1983 245.127 51.3756C245.127 55.8253 248.351 58.3226 253.664 58.3226C256.433 58.3226 259.157 57.4599 261.201 54.8264V57.7778ZM249.077 51.2848C249.077 48.6058 251.121 47.8794 254.163 47.2437L261.019 45.8362V48.4242C261.019 53.0102 257.296 54.9626 253.845 54.9626C250.485 54.9626 249.077 53.4642 249.077 51.2848Z" fill="white"/>
<path d="M34.5946 74.5946C53.1036 74.5946 68.1081 59.5901 68.1081 41.0811C68.1081 22.5721 53.1036 7.56763 34.5946 7.56763C16.0856 7.56763 1.08105 22.5721 1.08105 41.0811C1.08105 59.5901 16.0856 74.5946 34.5946 74.5946Z" stroke="white" stroke-width="2.16216"/>
<path d="M50.8108 32.4325C50.8108 46.165 39.6784 57.2973 25.946 57.2973C12.2134 57.2973 1.08105 46.165 1.08105 32.4325C1.08105 18.7 12.2134 7.56763 25.946 7.56763C39.6784 7.56763 50.8108 18.7 50.8108 32.4325Z" stroke="white" stroke-width="2.16216"/>
<path d="M17.2972 40C26.2532 40 33.5134 32.7398 33.5134 23.7838C33.5134 14.8279 26.2532 7.56763 17.2972 7.56763C8.34128 7.56763 1.08105 14.8279 1.08105 23.7838C1.08105 32.7398 8.34128 40 17.2972 40Z" stroke="white" stroke-width="2.16216"/>
</svg>
