<svg width="413" height="80" viewBox="0 0 413 80" fill="none" xmlns="http://www.w3.org/2000/svg">
<path fill-rule="evenodd" clip-rule="evenodd" d="M41.8499 9.17413C35.4627 9.17413 30.2849 14.3519 30.2849 20.7391C30.2849 27.1262 35.4627 32.304 41.8499 32.304C48.2373 32.304 53.4148 27.1262 53.4148 20.7391C53.4148 14.3519 48.2373 9.17413 41.8499 9.17413ZM19.2378 31.6729C31.2763 31.6729 41.0353 41.432 41.0353 53.4703V71.336H30.1932V53.4703C30.1932 52.1887 29.973 50.9578 29.5683 49.8143L13.6428 65.74L5.9762 58.0731L21.3342 42.7154C20.6557 42.584 19.9548 42.5151 19.2378 42.5151H1.37256V31.6729H19.2378ZM64.7319 31.6729C52.6935 31.6729 42.9341 41.432 42.9341 53.4703V71.336H53.7762V53.4703C53.7762 52.4663 53.9114 51.4934 54.1644 50.5696L70.8237 67.2289L78.4905 59.5621L61.8312 42.9032C62.755 42.6502 63.7279 42.5151 64.7319 42.5151H82.5968V31.6729H64.7319Z" fill="white"/>
<path d="M99.9443 71.9604V9.64124H117.594L136.517 63.0446H137.882V9.64124H147.98V71.9604H130.695L111.316 18.466H110.043V71.9604H99.9443Z" fill="white"/>
<path d="M188.436 63.7725L190.984 63.5L191.166 70.869C184.251 72.264 178.126 72.9615 172.788 72.9615C166.056 72.9615 161.204 71.1112 158.232 67.4118C155.321 63.7118 153.865 57.7985 153.865 49.6712C153.865 33.5379 160.446 25.4713 173.607 25.4713C186.344 25.4713 192.713 32.4159 192.713 46.3051L192.076 53.4016H163.873C163.933 57.1617 164.752 59.9213 166.329 61.6799C167.906 63.4393 170.848 64.3182 175.154 64.3182C179.46 64.3182 183.888 64.1368 188.436 63.7725ZM182.978 45.7593C182.978 41.271 182.25 38.1474 180.794 36.3886C179.4 34.569 177.004 33.6592 173.607 33.6592C170.211 33.6592 167.724 34.5993 166.147 36.4796C164.631 38.3597 163.842 41.4529 163.782 45.7593H182.978Z" fill="white"/>
<path d="M222.172 34.9329H209.617V54.9477C209.617 58.6478 209.89 61.1039 210.436 62.3168C210.982 63.5304 212.377 64.1368 214.621 64.1368L222.081 63.8636L222.536 71.7784C218.472 72.5669 215.379 72.9616 213.256 72.9616C208.101 72.9616 204.553 71.7784 202.612 69.4133C200.731 67.0476 199.792 62.59 199.792 56.0399V34.9329H193.969V26.4721H199.792V13.2805H209.617V26.4721H222.172V34.9329Z" fill="white"/>
<path d="M222.208 26.4721H231.943L239.13 63.5H240.949L249.593 27.3819H259.782L268.425 63.5H270.244L277.341 26.4721H287.166L277.522 71.9605H261.784L254.687 40.7555L247.591 71.9605H231.852L222.208 26.4721Z" fill="white"/>
<path d="M293.496 31.3848C296.65 27.4425 301.865 25.4713 309.144 25.4713C316.422 25.4713 321.607 27.4425 324.701 31.3848C327.855 35.3272 329.432 41.2406 329.432 49.1255C329.432 57.0099 327.915 62.9535 324.882 66.9572C321.85 70.9601 316.604 72.9615 309.144 72.9615C301.684 72.9615 296.437 70.9601 293.405 66.9572C290.372 62.9535 288.856 57.0099 288.856 49.1255C288.856 41.2406 290.402 35.3272 293.496 31.3848ZM300.956 60.9521C302.351 63.3785 305.08 64.5914 309.144 64.5914C313.208 64.5914 315.937 63.3785 317.332 60.9521C318.727 58.5263 319.425 54.5538 319.425 49.0344C319.425 43.515 318.666 39.6031 317.15 37.2983C315.694 34.9936 313.026 33.8412 309.144 33.8412C305.262 33.8412 302.563 34.9936 301.047 37.2983C299.591 39.6031 298.863 43.515 298.863 49.0344C298.863 54.5538 299.561 58.5263 300.956 60.9521Z" fill="white"/>
<path d="M334.733 71.9604V26.472H344.559V31.9307C349.714 28.5949 354.87 26.4418 360.025 25.4713V35.3878C354.809 36.4189 350.351 37.7532 346.651 39.3908L344.65 40.2096V71.9604H334.733Z" fill="white"/>
<path d="M372.973 71.9605H363.057V7.54883H372.973V44.7583L378.614 44.2125L389.349 26.472H400.449L387.348 47.7608L401.176 71.9605H389.986L378.887 52.7641L372.973 53.4016V71.9605Z" fill="white"/>
</svg>
