<svg width="309" height="80" viewBox="0 0 309 80" fill="none" xmlns="http://www.w3.org/2000/svg">
<g clip-path="url(#clip0_103_996)">
<path d="M121.024 65.058C116.127 65.058 111.996 64.3654 108.632 62.9805C105.319 61.5954 102.821 59.6416 101.139 57.1189C99.4573 54.5467 98.6164 51.5293 98.6164 48.0669V47.6217H106.63V48.8088C106.63 50.7874 107.074 52.4445 107.965 53.78C108.856 55.0661 110.339 56.0554 112.416 56.7479C114.495 57.391 117.363 57.7125 121.024 57.7125C124.19 57.7125 126.712 57.4899 128.592 57.0447C130.472 56.5501 131.807 55.8081 132.599 54.8188C133.44 53.78 133.86 52.494 133.86 50.9606C133.86 48.7841 133.168 47.2013 131.782 46.2119C130.397 45.2227 128.146 44.4312 125.031 43.8376L112.862 41.8343C110.092 41.2902 107.619 40.4988 105.442 39.46C103.266 38.3718 101.56 36.9374 100.322 35.1566C99.1355 33.3264 98.5417 31.051 98.5417 28.3305C98.5417 26.5497 98.9373 24.7937 99.7293 23.0625C100.52 21.3312 101.757 19.7731 103.439 18.3881C105.12 17.003 107.297 15.9149 109.968 15.1234C112.688 14.2825 116.003 13.8621 119.911 13.8621C124.758 13.8621 128.74 14.604 131.856 16.0879C134.973 17.5719 137.272 19.5999 138.757 22.1721C140.29 24.6948 141.056 27.5885 141.056 30.8532V31.2983H133.118V30.3338C133.118 28.3057 132.672 26.6239 131.782 25.2884C130.892 23.9034 129.432 22.8893 127.405 22.2463C125.376 21.5538 122.632 21.2076 119.168 21.2076C116.152 21.2076 113.703 21.4549 111.824 21.9495C109.993 22.4442 108.657 23.1861 107.816 24.1754C106.976 25.1153 106.555 26.3518 106.555 27.8853C106.555 29.2703 106.852 30.408 107.446 31.2983C108.04 32.1887 108.954 32.906 110.191 33.4501C111.427 33.9447 113.01 34.4146 114.939 34.8598L127.033 36.9374C130.348 37.5309 133.093 38.4213 135.27 39.6084C137.496 40.7956 139.152 42.3042 140.24 44.1344C141.328 45.9646 141.873 48.0916 141.873 50.5154C141.873 53.0381 141.156 55.4124 139.721 57.6382C138.287 59.8642 136.036 61.6696 132.969 63.0547C129.903 64.3902 125.92 65.058 121.024 65.058ZM165.221 64.316H155.279L144.223 27.4401H152.533L158.691 48.3637L160.398 57.8608H160.992L163.736 47.6217L171.453 27.4401H181.692L189.483 47.6217L192.228 57.8608H192.822L194.528 48.3637L200.687 27.4401H208.848L197.645 64.316H187.703L179.615 43.0957L176.795 34.0437H176.202L173.383 43.0957L165.221 64.316ZM220.932 64.316H212.919V27.4401H220.932V64.316ZM220.932 23.1366H212.919V14.604H220.932V23.1366ZM245.789 65.058C239.853 65.058 235.253 63.9203 231.988 61.6449C228.773 59.3695 227.165 56.1048 227.165 51.8509V51.6283H235.178V52.2219C235.178 54.6456 235.97 56.3275 237.552 57.2673C239.185 58.1576 241.93 58.6029 245.789 58.6029C249.4 58.6029 251.848 58.2318 253.134 57.4899C254.47 56.6984 255.137 55.4866 255.137 53.8542C255.137 52.3208 254.618 51.2326 253.579 50.5895C252.59 49.9465 250.76 49.4518 248.088 49.1056L237.998 47.7701C234.486 47.3249 231.741 46.3356 229.762 44.8022C227.784 43.2193 226.794 40.8698 226.794 37.7534C226.794 35.577 227.438 33.6726 228.723 32.0403C230.009 30.3585 231.938 29.0477 234.511 28.1078C237.083 27.168 240.248 26.6981 244.008 26.6981C247.768 26.6981 250.983 27.1928 253.654 28.1821C256.374 29.1714 258.452 30.6553 259.886 32.6339C261.37 34.6125 262.112 37.061 262.112 39.9794V40.202H254.173V39.7568C254.173 38.3223 253.876 37.1104 253.282 36.1212C252.689 35.1318 251.625 34.3899 250.092 33.8952C248.608 33.3511 246.506 33.079 243.785 33.079C240.372 33.079 237.998 33.4748 236.663 34.2662C235.327 35.0576 234.659 36.319 234.659 38.0502C234.659 39.4847 235.154 40.5235 236.144 41.1665C237.132 41.8096 238.987 42.329 241.708 42.7246L250.24 43.9118C254.593 44.4559 257.808 45.5194 259.886 47.1023C261.964 48.6852 263.002 51.01 263.002 54.0768C263.002 56.3522 262.285 58.3308 260.851 60.0125C259.416 61.6449 257.413 62.9062 254.84 63.7966C252.269 64.6375 249.251 65.058 245.789 65.058ZM286.22 65.058C280.285 65.058 275.684 63.9203 272.42 61.6449C269.205 59.3695 267.597 56.1048 267.597 51.8509V51.6283H275.61V52.2219C275.61 54.6456 276.401 56.3275 277.984 57.2673C279.616 58.1576 282.362 58.6029 286.22 58.6029C289.832 58.6029 292.28 58.2318 293.566 57.4899C294.901 56.6984 295.569 55.4866 295.569 53.8542C295.569 52.3208 295.049 51.2326 294.011 50.5895C293.022 49.9465 291.192 49.4518 288.52 49.1056L278.43 47.7701C274.918 47.3249 272.172 46.3356 270.193 44.8022C268.216 43.2193 267.226 40.8698 267.226 37.7534C267.226 35.577 267.869 33.6726 269.155 32.0403C270.441 30.3585 272.37 29.0477 274.943 28.1078C277.514 27.168 280.68 26.6981 284.44 26.6981C288.199 26.6981 291.414 27.1928 294.085 28.1821C296.806 29.1714 298.883 30.6553 300.318 32.6339C301.801 34.6125 302.544 37.061 302.544 39.9794V40.202H294.605V39.7568C294.605 38.3223 294.308 37.1104 293.714 36.1212C293.12 35.1318 292.057 34.3899 290.524 33.8952C289.04 33.3511 286.937 33.079 284.217 33.079C280.804 33.079 278.43 33.4748 277.094 34.2662C275.759 35.0576 275.091 36.319 275.091 38.0502C275.091 39.4847 275.585 40.5235 276.575 41.1665C277.564 41.8096 279.419 42.329 282.139 42.7246L290.672 43.9118C295.025 44.4559 298.24 45.5194 300.318 47.1023C302.395 48.6852 303.434 51.01 303.434 54.0768C303.434 56.3522 302.717 58.3308 301.282 60.0125C299.848 61.6449 297.845 62.9062 295.272 63.7966C292.7 64.6375 289.683 65.058 286.22 65.058Z" fill="white"/>
<path d="M48.3049 0.00170898H31.7092V31.4329L48.3049 15.7173V0.00170898Z" fill="white"/>
<path d="M0.277833 48.028L0.277832 31.4323H31.7091L15.9935 48.028H0.277833Z" fill="white"/>
<path d="M79.7356 31.4338V48.0296H48.3044L64.0201 31.4338H79.7356Z" fill="white"/>
<path d="M48.3708 31.3672H31.6428V79.4603H48.3708V31.3672Z" fill="white"/>
</g>
<defs>
<clipPath id="clip0_103_996">
<rect width="308.444" height="80" fill="white" transform="translate(0.277832)"/>
</clipPath>
</defs>
</svg>
