<svg width="410" height="80" viewBox="0 0 410 80" fill="none" xmlns="http://www.w3.org/2000/svg">
<g clip-path="url(#clip0_103_1042)">
<path d="M69.2067 57.7601C66.4827 57.7601 63.9424 57.5917 61.5858 57.2551C59.2291 56.9491 57.1632 56.4134 55.388 55.6483C53.6129 54.8525 52.2203 53.7661 51.2103 52.3888C50.2003 50.9809 49.6953 49.2211 49.6953 47.1093C49.6953 47.048 49.6953 46.9715 49.6953 46.8797C49.6953 46.7573 49.7106 46.6349 49.7413 46.5125H60.8053C60.7747 46.6349 60.7594 46.7573 60.7594 46.8797C60.7594 46.9715 60.7594 47.0633 60.7594 47.1551C60.7594 48.0733 61.0654 48.7773 61.6775 49.2669C62.2897 49.7566 63.1467 50.0933 64.2485 50.277C65.3503 50.43 66.6205 50.5065 68.059 50.5065C68.6405 50.5065 69.2373 50.5065 69.8494 50.5065C70.4921 50.4759 71.1042 50.43 71.6857 50.3688C72.2979 50.277 72.8334 50.1545 73.2926 50.0015C73.7822 49.8485 74.1648 49.6495 74.4403 49.4047C74.7463 49.1293 74.8994 48.7925 74.8994 48.3947C74.8994 47.8437 74.5474 47.4153 73.8435 47.1093C73.1702 46.8032 72.2366 46.5736 71.043 46.4206C69.88 46.237 68.5639 46.0686 67.0949 45.9156C65.6564 45.7626 64.1566 45.5637 62.5958 45.3188C61.0349 45.074 59.5198 44.7373 58.0508 44.3088C56.6123 43.8497 55.2962 43.2376 54.1026 42.4725C52.9396 41.7073 52.0061 40.7279 51.3022 39.5342C50.6288 38.3406 50.2921 36.8869 50.2921 35.1729C50.2921 33.3365 50.7665 31.7757 51.7153 30.4901C52.6947 29.2047 54.0108 28.1641 55.6635 27.3684C57.3162 26.5726 59.2138 25.9911 61.3562 25.6238C63.4986 25.2565 65.7329 25.0729 68.059 25.0729C70.4462 25.0729 72.6805 25.2565 74.7616 25.6238C76.8734 25.9605 78.7251 26.5114 80.3166 27.2765C81.9388 28.0417 83.2089 29.0517 84.127 30.3066C85.0453 31.5308 85.5044 33.0305 85.5044 34.8056V35.3565H74.5321V35.1729C74.5321 34.5608 74.3332 34.0252 73.9353 33.5661C73.5374 33.0764 72.8947 32.6938 72.0071 32.4183C71.1195 32.1123 69.9565 31.9593 68.518 31.9593C67.0489 31.9593 65.8246 32.0511 64.8453 32.2348C63.8659 32.4183 63.1314 32.6785 62.6416 33.0152C62.1826 33.3213 61.953 33.6579 61.953 34.0252C61.953 34.5761 62.2897 35.0045 62.963 35.3106C63.667 35.6167 64.6005 35.8615 65.7635 36.0452C66.9571 36.1982 68.2732 36.3512 69.7117 36.5043C71.1807 36.6573 72.6958 36.8562 74.2566 37.1011C75.8175 37.3153 77.3173 37.6367 78.7558 38.0652C80.2248 38.463 81.5408 39.0293 82.7038 39.7638C83.8975 40.4983 84.831 41.4318 85.5044 42.5643C86.2083 43.6966 86.5602 45.0893 86.5602 46.742C86.5602 49.3435 85.7951 51.4553 84.2648 53.0774C82.7651 54.6995 80.6992 55.8932 78.067 56.6583C75.4655 57.3928 72.5121 57.7601 69.2067 57.7601ZM90.9601 30.1229V23.9252H101.244V30.1229H90.9601ZM90.9601 57.2093V32.9693H101.244V57.2093H90.9601ZM106.741 57.2093V32.9693H115.097L115.785 36.9174H116.198C117.025 35.8462 117.989 34.9893 119.091 34.3465C120.223 33.6732 121.417 33.1835 122.671 32.8774C123.957 32.5714 125.258 32.4183 126.573 32.4183C128.992 32.4183 130.997 32.8163 132.588 33.612C134.21 34.3772 135.419 35.5402 136.214 37.1011C137.041 38.662 137.454 40.5901 137.454 42.8856V57.2093H127.171V44.1252C127.171 43.4824 127.079 42.8856 126.895 42.3347C126.711 41.7532 126.437 41.2635 126.069 40.8656C125.701 40.4677 125.227 40.1617 124.645 39.9475C124.094 39.7026 123.421 39.5802 122.626 39.5802C121.524 39.5802 120.544 39.8097 119.687 40.2688C118.861 40.6973 118.203 41.3094 117.713 42.1052C117.254 42.8703 117.025 43.7579 117.025 44.7678V57.2093H106.741ZM146.227 66.8501C145.156 66.8501 144.146 66.6053 143.197 66.1156C142.278 65.6259 141.529 64.9373 140.948 64.0496C140.397 63.1927 140.121 62.2286 140.121 61.1573C140.121 59.8413 140.549 58.6936 141.406 57.7142C142.294 56.7349 143.472 56.0003 144.941 55.5106C143.901 55.0209 143.135 54.4087 142.645 53.6742C142.187 52.9091 141.957 52.0981 141.957 51.2411C141.957 49.8026 142.447 48.6089 143.426 47.6601C144.437 46.6807 145.752 46.0839 147.374 45.8697C146.119 45.2576 145.048 44.4465 144.161 43.4365C143.304 42.3959 142.876 41.2635 142.876 40.0392C142.876 37.9581 143.549 36.3665 144.895 35.2647C146.242 34.1629 148.078 33.4131 150.405 33.0152C152.761 32.6173 155.424 32.4183 158.393 32.4183C159.341 32.4183 160.245 32.449 161.101 32.5101C161.989 32.5714 162.83 32.6785 163.626 32.8316C165.248 32.0052 166.365 31.1789 166.978 30.3525C167.621 29.4955 167.941 28.8527 167.941 28.4243H177.353C177.353 29.7404 177.077 30.8269 176.526 31.6838C175.976 32.5408 175.18 33.2294 174.14 33.7497C173.099 34.2701 171.86 34.6832 170.421 34.9893C171.523 35.6626 172.38 36.443 172.992 37.3306C173.604 38.2182 173.909 39.1976 173.909 40.2688C173.909 42.2276 173.344 43.7732 172.212 44.9056C171.079 46.0381 169.549 46.8491 167.621 47.3388C165.693 47.7979 163.519 48.0274 161.101 48.0274H155.271C154.23 48.0274 153.48 48.1499 153.021 48.3947C152.593 48.6396 152.379 48.9609 152.379 49.3588C152.379 49.7566 152.562 50.0933 152.93 50.3688C153.327 50.6442 154.108 50.782 155.271 50.782H169.135C171.951 50.782 174.017 51.5165 175.333 52.9856C176.649 54.4241 177.307 56.2757 177.307 58.5405C177.307 60.2545 176.833 61.7236 175.884 62.9478C174.935 64.2027 173.68 65.1668 172.119 65.8401C170.589 66.5134 168.921 66.8501 167.116 66.8501H146.227ZM152.975 61.7542H164.499C164.957 61.7542 165.371 61.6624 165.738 61.4788C166.105 61.2951 166.397 61.0197 166.611 60.6524C166.825 60.3157 166.932 59.9179 166.932 59.4588C166.932 58.7549 166.687 58.2039 166.197 57.8061C165.738 57.4082 165.172 57.2093 164.499 57.2093H152.975C152.302 57.2093 151.736 57.3928 151.277 57.7601C150.818 58.158 150.589 58.7089 150.589 59.4128C150.589 60.1168 150.818 60.683 151.277 61.1115C151.736 61.5399 152.302 61.7542 152.975 61.7542ZM158.438 43.0693C160.152 43.0693 161.438 42.8397 162.295 42.3806C163.182 41.9215 163.626 41.2023 163.626 40.2229C163.626 39.2435 163.182 38.5243 162.295 38.0652C161.438 37.6061 160.152 37.3765 158.438 37.3765C156.756 37.3765 155.469 37.6061 154.582 38.0652C153.694 38.5243 153.251 39.2435 153.251 40.2229C153.251 40.8656 153.45 41.4013 153.847 41.8297C154.245 42.2581 154.827 42.5796 155.592 42.7938C156.357 42.9774 157.306 43.0693 158.438 43.0693ZM189.19 57.7601C187.629 57.7601 186.176 57.653 184.829 57.4388C183.483 57.2245 182.304 56.8573 181.294 56.3369C180.315 55.7861 179.549 55.0515 178.999 54.1333C178.448 53.1845 178.173 51.9756 178.173 50.5065C178.173 48.5783 178.677 47.0633 179.687 45.9615C180.728 44.8291 182.197 44.0028 184.095 43.4824C185.992 42.9315 188.242 42.5796 190.844 42.4265C193.476 42.2735 196.398 42.197 199.612 42.197V41.692C199.612 40.8656 199.397 40.2076 198.969 39.7179C198.541 39.1976 197.929 38.8303 197.133 38.6161C196.368 38.3712 195.45 38.2488 194.379 38.2488C193.736 38.2488 193.016 38.3101 192.221 38.4325C191.425 38.5243 190.736 38.7232 190.155 39.0293C189.573 39.3047 189.283 39.7332 189.283 40.3147V40.4983H178.815C178.785 40.3759 178.769 40.2841 178.769 40.2229C178.769 40.131 178.769 40.0239 178.769 39.9015C178.769 38.463 179.366 37.1776 180.56 36.0452C181.784 34.9127 183.589 34.0252 185.977 33.3824C188.365 32.7397 191.302 32.4183 194.791 32.4183C198.005 32.4183 200.729 32.6938 202.964 33.2447C205.229 33.765 206.942 34.6067 208.105 35.7697C209.299 36.9327 209.896 38.4936 209.896 40.4525V49.4965C209.896 49.9862 210.018 50.4147 210.263 50.782C210.508 51.1186 210.875 51.2869 211.365 51.2869H213.89V56.842C213.339 57.0562 212.528 57.2551 211.457 57.4388C210.416 57.653 209.314 57.7601 208.151 57.7601C206.499 57.7601 205.152 57.6071 204.111 57.301C203.07 57.0256 202.275 56.643 201.724 56.1533C201.173 55.6636 200.775 55.128 200.53 54.5465H200.163C199.276 55.1893 198.281 55.7554 197.179 56.2452C196.108 56.7349 194.914 57.1021 193.598 57.3469C192.282 57.6224 190.813 57.7601 189.19 57.7601ZM192.267 51.9756C192.725 51.9756 193.353 51.9297 194.149 51.8379C194.945 51.7155 195.756 51.5165 196.582 51.2411C197.439 50.9656 198.158 50.5983 198.74 50.1392C199.321 49.6801 199.612 49.0833 199.612 48.3488V46.8338C196.949 46.8338 194.776 46.9715 193.093 47.2469C191.44 47.4918 190.231 47.8437 189.466 48.3029C188.701 48.762 188.318 49.3129 188.318 49.9556C188.318 50.5371 188.502 50.9809 188.869 51.2869C189.268 51.5624 189.773 51.7461 190.384 51.8379C190.997 51.9297 191.624 51.9756 192.267 51.9756ZM216.627 66.2533V32.9693H224.982L225.808 36.7338H226.221C227.477 35.1117 228.93 33.9946 230.583 33.3824C232.236 32.7397 233.949 32.4183 235.725 32.4183C238.142 32.4183 240.331 32.8774 242.29 33.7957C244.248 34.6832 245.809 36.0605 246.973 37.9275C248.135 39.7944 248.717 42.1817 248.717 45.0893C248.717 47.9968 248.135 50.3841 246.973 52.251C245.809 54.118 244.248 55.5106 242.29 56.4287C240.331 57.3164 238.142 57.7601 235.725 57.7601C234.868 57.7601 233.919 57.653 232.878 57.4388C231.837 57.2551 230.828 56.9338 229.848 56.4747C228.869 55.985 228.028 55.3422 227.324 54.5465H226.91V66.2533H216.627ZM232.557 50.5983C233.903 50.5983 234.99 50.3688 235.816 49.9097C236.674 49.42 237.301 48.7925 237.699 48.0274C238.097 47.2317 238.295 46.39 238.295 45.5024V44.6761C238.295 43.7579 238.097 42.9162 237.699 42.151C237.301 41.3553 236.674 40.7279 235.816 40.2688C234.99 39.8097 233.903 39.5802 232.557 39.5802C231.211 39.5802 230.109 39.825 229.252 40.3147C228.425 40.8044 227.813 41.4624 227.415 42.2888C227.048 43.0845 226.864 43.9721 226.864 44.9515V45.2269C226.864 45.9615 226.972 46.6501 227.186 47.2929C227.4 47.9356 227.737 48.5018 228.196 48.9915C228.654 49.4812 229.237 49.8791 229.941 50.1852C230.675 50.4606 231.547 50.5983 232.557 50.5983ZM268.959 57.7601C265.623 57.7601 262.685 57.301 260.145 56.3829C257.605 55.4341 255.615 54.0262 254.177 52.1592C252.738 50.2923 252.019 47.9356 252.019 45.0893C252.019 42.2429 252.738 39.8862 254.177 38.0193C255.615 36.1217 257.605 34.7138 260.145 33.7957C262.685 32.8774 265.623 32.4183 268.959 32.4183C272.295 32.4183 275.234 32.8774 277.774 33.7957C280.314 34.7138 282.303 36.1217 283.742 38.0193C285.181 39.8862 285.9 42.2429 285.9 45.0893C285.9 47.9356 285.181 50.2923 283.742 52.1592C282.303 54.0262 280.314 55.4341 277.774 56.3829C275.234 57.301 272.295 57.7601 268.959 57.7601ZM268.959 51.2869C270.459 51.2869 271.668 51.0268 272.586 50.5065C273.535 49.9862 274.223 49.2975 274.652 48.4406C275.081 47.553 275.295 46.5889 275.295 45.5484V44.6301C275.295 43.5895 275.081 42.6407 274.652 41.7838C274.223 40.8962 273.535 40.1923 272.586 39.672C271.668 39.1517 270.459 38.8916 268.959 38.8916C267.46 38.8916 266.236 39.1517 265.286 39.672C264.368 40.1923 263.695 40.8962 263.267 41.7838C262.838 42.6407 262.624 43.5895 262.624 44.6301V45.5484C262.624 46.5889 262.838 47.553 263.267 48.4406C263.695 49.2975 264.368 49.9862 265.286 50.5065C266.236 51.0268 267.46 51.2869 268.959 51.2869ZM290.287 57.2093V32.9693H298.643L299.332 36.9174H299.744C300.326 35.8462 301.03 34.974 301.856 34.3006C302.683 33.6273 303.57 33.1376 304.519 32.8316C305.468 32.5255 306.417 32.3725 307.365 32.3725C308.038 32.3725 308.651 32.4183 309.202 32.5101C309.783 32.602 310.349 32.755 310.901 32.9693V40.5901H306.172C305.223 40.5901 304.397 40.7432 303.693 41.0493C302.989 41.3247 302.407 41.7226 301.949 42.2429C301.489 42.7325 301.137 43.3294 300.893 44.0333C300.678 44.7067 300.571 45.4565 300.571 46.2829V57.2093H290.287ZM329.54 57.7601C326.081 57.7601 323.036 57.3164 320.404 56.4287C317.802 55.5412 315.766 54.1639 314.298 52.297C312.859 50.3994 312.14 47.9968 312.14 45.0893C312.14 42.2429 312.859 39.8862 314.298 38.0193C315.736 36.1217 317.725 34.7138 320.266 33.7957C322.806 32.8774 325.744 32.4183 329.08 32.4183C332.57 32.4183 335.584 32.8621 338.125 33.7497C340.665 34.6373 342.623 36.0146 344.001 37.8815C345.378 39.7485 346.067 42.151 346.067 45.0893V46.8338H322.883C322.944 47.9662 323.235 48.915 323.755 49.6801C324.276 50.4453 325.025 51.0115 326.005 51.3788C327.014 51.7461 328.223 51.9297 329.631 51.9297C330.549 51.9297 331.36 51.8379 332.064 51.6542C332.799 51.4706 333.411 51.2257 333.901 50.9197C334.39 50.583 334.757 50.2157 335.003 49.8179C335.247 49.42 335.37 49.0068 335.37 48.5783H346.021C346.021 50.1086 345.577 51.4553 344.689 52.6183C343.832 53.7508 342.639 54.6995 341.109 55.4646C339.609 56.2298 337.864 56.8113 335.875 57.2093C333.885 57.5765 331.773 57.7601 329.54 57.7601ZM322.929 42.151H335.048C335.048 41.6308 334.926 41.1411 334.681 40.682C334.437 40.2229 334.069 39.8097 333.58 39.4424C333.12 39.0751 332.539 38.7844 331.835 38.5701C331.162 38.3559 330.397 38.2488 329.54 38.2488C328.193 38.2488 327.061 38.4325 326.142 38.7997C325.224 39.1364 324.49 39.6108 323.939 40.2229C323.418 40.8044 323.082 41.4471 322.929 42.151Z" fill="white"/>
<path fill-rule="evenodd" clip-rule="evenodd" d="M400.732 73.6213C400.36 73.2515 400.183 73.0765 399.942 72.8363V72.4356C399.468 71.9166 399.003 71.4209 398.552 70.9136C398.172 70.4857 397.83 70.0203 397.428 69.6147C396.98 69.1629 396.589 68.6632 396.116 68.2267C395.687 67.8332 395.114 67.5352 394.848 67.0011C394.54 66.3794 393.863 66.1902 393.475 65.6672C393.116 65.1841 392.667 64.7684 392.259 64.3243C392.249 64.3339 392.185 64.3986 392.105 64.4785C390.715 63.3151 389.348 62.1117 387.563 61.3414C387.545 61.2943 387.484 61.136 387.41 60.9413C387.309 61.0217 387.217 61.095 387.123 61.1709C386.196 60.6823 385.221 60.2428 384.314 59.7284C383.196 59.0945 381.943 58.7299 380.91 57.918C380.391 57.5103 379.707 57.2483 379.056 57.1021C378.657 57.0131 378.736 56.7551 378.588 56.5467C378.456 56.6281 378.324 56.7091 378.147 56.8183C377.412 56.4309 376.656 56.0323 375.876 55.6215C376.023 55.4607 376.112 55.3636 376.252 55.2098C376.013 54.8714 376.026 54.3267 375.173 54.1861C375.591 54.0398 375.85 53.9493 376.168 53.8381C375.773 53.4728 375.619 53.3292 375.423 53.1481C375.268 53.2427 375.123 53.3317 374.964 53.4293C374.749 53.3079 374.503 53.1693 374.267 53.0353C374.284 52.9225 374.271 52.7823 374.316 52.7581C374.656 52.5826 375.008 52.4298 375.354 52.2709C375.474 51.618 374.834 51.6772 374.557 51.401C374.622 51.3357 374.687 51.2709 374.778 51.1805C374.696 51.0181 374.609 50.8451 374.517 50.6629C374.851 50.4308 375.164 50.2117 375.611 49.9012C376.752 49.8152 378.076 49.8218 379.351 49.574C380.01 49.4465 380.74 49.5511 381.291 49.2897C381.975 48.9654 382.66 49.2755 383.259 49.0378C383.918 48.7763 384.608 48.9482 385.212 48.753C385.876 48.5385 386.565 48.6776 387.17 48.4844C388.611 48.0241 390.172 48.0903 391.551 47.4105C392.164 47.5774 392.778 47.0423 393.391 47.4105C394.027 47.0094 394.753 46.9083 395.469 46.7626C396.48 46.5572 397.406 46.0251 398.476 46.0119C398.779 46.0079 399.077 45.7711 399.567 45.5592C398.274 45.1849 397.164 44.8632 395.806 44.4701C395.729 44.3746 395.475 44.0564 395.217 43.7352C394.815 43.8516 394.532 43.9335 394.23 44.0205C392.988 43.541 391.483 43.4995 390.392 42.4671C389.972 42.9821 389.372 42.589 388.924 42.7311C387.453 41.981 385.88 41.9016 384.206 41.4813C384.188 41.4615 384.034 41.2926 383.887 41.1317C383.292 40.9046 382.662 41.2111 382.055 40.8257C381.615 40.5455 380.947 40.4853 380.403 40.5435C379.74 40.6143 379.095 40.4352 378.61 40.1838C378.008 39.8717 377.459 40.0812 376.844 39.9188C376.738 39.8035 376.583 39.6345 376.368 39.4003C375.001 39.5273 373.618 39.2602 372.185 39.1509C372.05 38.9744 371.916 38.7979 371.742 38.5702H370.328C370.504 38.3649 370.585 38.2703 370.755 38.073C370.047 38.1413 369.643 37.765 369.266 37.2379C369.339 37.1094 369.423 36.9613 369.495 36.8353C368.801 36.1226 368.088 35.3907 367.437 34.7229C367.542 34.3567 367.622 34.079 367.724 33.7205C367.825 33.6724 368.012 33.5823 368.198 33.4923V33.1691C368.054 33.1205 367.895 33.0669 367.653 32.9854C367.593 32.1711 368.076 31.6314 368.623 31.1357C369.264 31.0269 369.264 31.0269 369.7 30.2277C369.404 30.3946 369.291 30.4579 369.115 30.556C369.083 30.4316 369.046 30.2904 368.996 30.0941C369.305 30.0477 369.559 30.0097 369.874 29.9621C369.765 29.8256 369.694 29.7345 369.641 29.6673C370.145 28.9712 370.65 28.2737 371.215 27.4922H371.829C371.692 27.3309 371.612 27.2363 371.504 27.1083C371.665 27.0537 371.816 27.0026 372.017 26.9348V26.3506C372.196 26.1715 372.326 26.0421 372.456 25.9115C372.756 26.1614 373.243 26.2105 373.316 26.7112C373.756 26.0966 373.189 25.8306 372.828 25.3875C373.101 25.3637 373.315 25.345 373.539 25.3258C373.881 24.7588 374.338 24.2706 374.361 23.4911C374.38 22.8406 375.025 22.52 375.672 22.2554C375.566 22.1133 375.503 22.0273 375.375 21.8564C375.622 21.8077 375.841 21.7653 376.121 21.7111C376.111 21.6459 376.098 21.5493 376.059 21.262C376.316 20.8998 376.788 20.4426 377.003 19.8856C377.308 19.0925 378.176 18.8275 378.476 18.0101C378.739 17.2933 379.23 16.6555 379.777 16.0541C380.523 15.2341 381.073 14.2372 381.753 13.2493H380.996C380.934 13.3807 380.845 13.57 380.724 13.8279C380.518 13.6994 380.34 13.5867 380.125 13.4526C379.774 13.6574 379.38 13.839 379.045 14.099C378.765 14.3165 378.272 14.3413 378.274 14.8517C377.751 14.7141 377.47 15.1016 377.164 15.4015C377.071 15.309 377.007 15.2442 376.956 15.1936C375.83 16.2887 374.466 16.9933 373.039 17.6039C372.691 17.9691 372.343 18.3338 371.998 18.6949H371.54C370.932 19.1304 370.402 19.5093 369.8 19.9408C369.64 19.6605 369.527 19.4618 369.38 19.2053C368.986 19.4304 368.614 19.6423 368.27 19.8386C368.358 20.1973 368.434 20.5068 368.509 20.8133C367.687 21.3612 366.933 21.8639 365.969 22.5069C366.091 21.9722 366.368 21.831 366.563 21.5898C366.018 21.2554 365.896 21.8452 365.598 22.0091C365.463 21.9115 365.33 21.8133 365.043 21.6039C364.976 21.8619 364.914 22.1032 364.851 22.3445C364.78 22.2762 364.71 22.2079 364.64 22.1401C364.743 22.3166 364.847 22.4932 364.961 22.6879C364.595 22.87 364.292 23.0203 363.994 23.1679C363.861 23.0521 363.761 22.9641 363.652 22.869C363.562 22.9525 363.465 23.0405 363.34 23.1548C363.412 23.5301 363.485 23.9292 363.553 24.2929C362.444 24.9459 361.388 25.5666 360.332 26.1877C360.295 26.1498 360.258 26.1124 360.22 26.0749C360.297 25.9682 360.373 25.8614 360.564 25.5974C359.867 25.7253 359.292 25.8311 358.625 25.954C358.468 25.4249 358.324 24.9357 358.116 24.2256C358.095 24.21 357.881 24.041 357.608 23.8265C358.995 22.9271 360.086 21.8002 361.235 20.7688C362.826 19.3413 364.641 18.2513 366.304 16.9403C368.035 15.575 369.948 14.4389 371.778 13.1972C372.82 12.4905 373.84 11.751 374.896 11.0646C376.378 10.1015 377.849 9.11361 379.393 8.26031C380.073 7.88449 380.578 7.28357 381.361 7.01953C382.034 6.79292 382.591 6.2183 383.195 5.79089C384.736 4.69982 386.308 3.6553 387.724 2.39074C388.646 1.56675 389.677 0.863659 390.804 -0.0043335H392.451C392.464 0.395267 392.619 0.825722 392.18 1.26326C392.542 1.30372 392.882 1.34115 393.202 1.37657C393.861 2.50658 393.975 3.72358 393.799 5.14242C393.669 5.23498 393.411 5.42011 392.937 5.76002C392.866 5.78835 392.514 5.92948 392.092 6.09842C392.248 6.5309 392.364 6.85564 392.475 7.16166C392.108 7.65687 391.775 8.17837 391.37 8.63513C391.024 9.02463 391.047 9.7545 390.183 9.65894C390.386 9.86276 390.452 9.92747 390.572 10.0489C389.933 10.2948 390.093 11.3029 389.219 11.3149C389.189 11.5567 389.164 11.7738 389.133 12.0307C389.02 12.057 388.894 12.0859 388.756 12.1177C388.132 13.7576 386.954 15.0525 385.859 16.4405C385.859 16.5416 385.911 16.7111 385.85 16.8123C385.604 17.2205 385.404 17.8077 385.037 17.957C384.44 18.1988 384.472 19.091 383.683 19.0313C383.664 19.3652 383.646 19.6748 383.628 20.0065C383.474 20.0627 383.315 20.1209 383.12 20.1922C383.111 20.3535 383.102 20.5306 383.087 20.8037C382.76 21.1143 382.38 21.4755 381.93 21.9029C381.783 21.5933 381.697 21.4107 381.579 21.1573C381.347 21.5037 381.138 21.8164 380.929 22.1295C381.014 22.267 381.1 22.4037 381.236 22.6216C381.018 22.7526 380.78 22.8372 380.63 23.0015C380.5 23.1452 380.467 23.3789 380.392 23.5695C380.473 23.6864 380.57 23.8276 380.736 24.0678C380.507 24.2029 380.31 24.3177 379.98 24.5119C379.895 24.4877 379.613 24.4082 379.294 24.3177V24.8766C378.824 25.1275 378.494 25.2989 378.364 25.9054C378.146 26.9363 377.502 27.8397 377.012 28.7831C376.937 28.9277 376.667 28.9708 376.489 29.0593C376.582 29.1721 376.66 29.2656 376.652 29.256C376.266 29.7077 375.964 30.1806 375.549 30.512C375.128 30.8493 374.595 31.0471 373.988 31.3708C373.865 31.6724 374.155 31.7512 374.902 31.599C374.42 31.986 374.258 32.1159 374.061 32.2733C373.888 32.1868 373.71 32.0977 373.372 31.9283C373.52 32.3101 373.62 32.5667 373.732 32.856C373.665 32.946 373.588 33.0507 373.46 33.2206C373.589 33.3411 373.753 33.6086 373.881 33.593C374.509 33.5161 374.983 33.817 375.444 34.0644C376.454 33.7993 377.339 34.3567 378.276 34.462C379.308 34.5768 380.351 34.7468 381.337 35.0593C382.28 35.3578 383.237 35.6891 384.196 35.7771C385.212 35.8701 386.143 36.2364 387.132 36.3988C388.139 36.5642 389.132 36.8752 390.099 37.2166C391.029 37.5465 392.012 37.6431 392.948 37.9901C393.9 38.3426 394.91 38.633 395.908 38.8186C396.898 39.0028 397.772 39.4574 398.729 39.6942C399.682 39.9299 400.626 40.2117 401.559 40.5202C402.527 40.8404 403.474 41.2248 404.436 41.5662C405.36 41.8945 406.291 42.2041 407.298 42.5485C407.54 42.7918 407.862 43.1131 408.18 43.4302C408.101 43.5182 408.012 43.6189 407.932 43.7089C407.89 44.2992 408.397 44.2936 408.672 44.4485C408.781 45.0413 408.884 45.5961 408.995 46.196C408.948 46.2466 408.856 46.3462 408.771 46.4383C409.415 47.1597 408.924 47.7747 408.516 48.3144C408.103 48.8592 407.556 49.3023 407.036 49.8238C405.707 50.01 404.553 51.0874 403.037 50.6797C402.996 50.8835 402.97 51.0094 402.926 51.2204C402.111 51.3544 401.249 51.4956 400.273 51.6554C400.263 51.6873 400.216 51.8441 400.181 51.9604C399.415 52.1728 398.676 52.398 397.926 52.576C397.631 52.6458 397.241 52.7302 397.017 52.5988C396.445 52.2649 395.969 52.2675 395.4 52.5988C395.139 52.751 394.753 52.6883 394.435 52.9114H395.516C395.438 53.0773 395.403 53.1981 395.379 53.1957C394.656 53.1299 393.99 53.4045 393.341 53.621C392.796 53.8037 392.181 53.9003 391.784 53.6772C391.269 53.3878 390.825 53.6059 390.147 53.3777C390.351 53.6615 390.411 53.7439 390.471 53.8274C389.652 54.353 389.311 54.4991 388.669 54.182C388.155 53.9281 387.727 54.1258 387.248 54.2417C387.614 54.2831 387.98 54.3246 388.61 54.3959C387.717 54.5856 387.091 54.7187 386.206 54.9063C388.388 55.8896 390.022 57.2614 391.786 58.4385C393.582 59.6373 394.418 60.399 395.524 61.8068C395.726 62.0622 396.088 62.1866 396.311 62.4304C396.698 62.8533 397 63.3566 397.403 63.7622C397.772 64.1346 398.287 64.3687 398.632 64.7582C399.544 65.7896 400.281 66.9682 401.267 67.9445C401.363 68.04 401.307 68.2914 401.322 68.4907C401.517 68.6116 401.8 68.6946 401.932 68.8832C402.574 69.8053 403.244 70.7194 403.772 71.7072C404.19 72.4923 404.673 73.2424 405.036 74.0755C405.396 74.8985 405.453 75.7462 405.684 76.5626C405.924 77.4074 405.693 78.3158 405.283 79.198C404.309 78.3588 403.392 79.4215 402.41 79.3629C402.873 79.3988 403.335 79.4347 403.798 79.4706C403.794 79.5439 403.788 79.6178 403.784 79.6911H402.871C402.595 79.6911 402.318 79.6866 402.043 79.6922C401.734 79.6992 401.392 79.6072 401.186 79.9532C401.014 79.5465 400.683 80.024 400.509 79.8434C400.2 79.5202 400.052 80.2045 399.728 79.9284C399.548 79.7761 399.253 79.7306 399.003 79.7003C398.693 79.6629 398.376 79.6911 398.092 79.6911C398.011 79.4615 397.955 79.3017 397.867 79.0487C397.782 79.2921 397.729 79.4458 397.656 79.6603C397.509 79.6729 397.337 79.6881 397.055 79.7124C396.79 79.4478 396.476 79.1342 396.194 78.8525C395.949 78.8656 395.772 78.8752 395.612 78.8838C395.54 79.0791 395.482 79.238 395.402 79.458C395.29 79.2248 395.204 79.0462 395.119 78.8676H394.816C394.732 79.0447 394.644 79.2339 394.545 79.4428C393.751 79.1848 393.012 78.8156 392.145 78.8363C391.752 78.8454 391.353 78.5586 390.913 78.3892C390.92 78.3841 390.856 78.4341 390.756 78.5106C390.062 78.3249 389.342 78.1327 388.455 77.8955C388.755 77.6522 388.954 77.4898 389.14 77.3386C388.7 77.2768 388.408 77.3108 387.956 77.4843C387.921 77.458 387.883 77.4352 387.851 77.4053C387.784 77.3421 387.72 77.2758 387.644 77.1995C387.582 77.2668 387.523 77.335 387.46 77.3997C387.428 77.4311 387.391 77.4564 387.354 77.4862C386.99 77.3679 386.625 77.2485 386.144 77.0917V75.8788C386.082 75.8484 386.02 75.8186 385.957 75.7887C385.844 75.9622 385.732 76.1362 385.57 76.383C385.624 76.4827 385.722 76.6588 385.906 76.9941C385.268 76.8363 384.747 76.7078 384.241 76.5823C384.204 76.4155 384.176 76.29 384.148 76.1595C383.452 76.6309 382.94 76.2495 382.42 75.8474C382.254 75.7194 382.052 75.6213 381.852 75.5586C381.404 75.4174 380.945 75.3072 380.396 75.16C380.392 75.1438 380.356 75.0213 380.281 74.7685C380.025 74.7857 379.718 74.8064 379.229 74.8398C379.308 74.9055 379.229 74.7948 379.125 74.7583C378.282 74.4624 377.404 74.2672 376.583 73.901C376.506 73.8666 376.404 73.8944 376.318 73.8732C375.762 73.7335 375.512 73.0178 374.859 73.074C374.283 73.1236 373.922 72.6673 373.434 72.5109C372.908 72.343 372.398 72.1261 371.885 71.9217C371.727 71.8589 371.588 71.735 371.427 71.6991C371.252 71.6597 371.061 71.6901 370.794 71.6901C370.665 71.5201 370.5 71.3026 370.378 71.1412H369.442C368.889 70.5611 368.34 69.9652 367.424 70.0309C367.342 70.037 367.226 70.0219 367.179 69.9693C366.392 69.0774 365.152 69.0774 364.213 68.4431C363.308 67.8316 362.204 67.5236 361.24 66.9864C359.963 66.2752 358.738 65.4725 357.494 64.7021C357.38 64.6317 357.267 64.527 357.204 64.4108C356.616 63.3237 356.04 62.2301 355.515 61.2418C355.646 60.5635 355.755 60.0061 355.893 59.2893C356.116 59.1532 356.479 58.9301 356.833 58.7132C357.572 58.9984 358.3 59.2392 358.993 59.5604C359.689 59.8831 360.38 60.2392 361.018 60.6636C362.413 61.5917 363.981 62.1836 365.43 63.0015C366.288 63.4856 367.292 63.7142 368.002 64.4557C369.624 64.8842 371.058 65.738 372.572 66.4132C373.227 66.7052 373.844 67.0987 374.556 67.2878C375.212 67.4613 375.839 67.7381 376.48 67.9667C378.484 68.6829 380.482 69.4077 382.491 70.1088C383.536 70.4741 384.591 70.8165 385.652 71.1326C386.722 71.4508 387.844 71.6617 388.876 72.0204C390.685 72.6485 392.588 72.7543 394.404 73.3097C395.362 73.603 396.43 73.5646 397.452 73.6111C398.447 73.6572 399.447 73.6213 400.732 73.6213Z" fill="white"/>
<path fill-rule="evenodd" clip-rule="evenodd" d="M43.0717 22.5577H44.0434C44.2194 22.2871 44.403 22.0049 44.5881 21.719C44.7272 21.8445 44.8274 21.9346 44.9786 22.0706C45.3388 21.8683 45.711 21.6588 46.0767 21.4535C46.1223 21.1586 46.1613 20.9057 46.2017 20.6417C46.4288 20.7701 46.6074 20.8718 46.7748 20.9669C47.0049 20.4894 47.2077 20.0696 47.4268 19.6154C47.3661 19.5951 47.2143 19.5436 47.0141 19.4757V18.8444C46.2857 18.5946 45.7333 17.9638 44.9083 18.1798C44.8603 17.6204 44.3489 17.4363 44.0241 17.3639C43.2542 17.193 42.6078 16.586 41.8835 16.5718C41.0382 16.5556 40.3969 16.0908 39.6609 15.8809C38.7777 15.6284 37.8688 15.3588 36.9927 15.021C36.1383 14.6916 35.2405 14.2612 34.2602 14.2925C32.7104 13.3937 30.9096 13.291 29.2399 12.7796C27.9395 12.3816 26.6278 11.8853 25.2262 11.7827C24.7386 11.7468 24.2738 11.2414 23.7654 11.987C23.3957 11.3102 22.9606 10.9364 22.2343 10.9607C21.7245 10.9774 21.1887 10.8565 20.6986 10.6941C19.4153 10.2708 18.078 10.1357 16.7663 9.86614C15.562 9.61823 14.3237 9.5328 13.1437 9.27174C11.5533 8.91974 9.98979 9.16605 8.41974 9.06587C8.14306 9.04818 7.8593 9.2728 7.56845 9.31574C7.25332 9.36232 6.8431 9.20605 6.6261 9.35627C6.34436 9.55147 6.13596 9.37494 5.90631 9.42045C5.56741 9.48774 5.23407 9.58489 4.82992 9.68658C4.68121 9.94809 4.18045 10.0527 4.18146 10.5687C4.18197 10.6987 3.93411 10.947 3.81221 10.94C2.88857 10.8868 2.67461 11.6471 2.27501 12.2885C2.12022 13.5364 2.72772 14.4109 3.89769 14.9507C4.05146 15.022 4.21433 15.0898 4.37973 15.116C5.02922 15.2188 5.7222 15.197 6.32159 15.4251C6.98068 15.6755 7.62409 15.6557 8.28621 15.673C8.92206 15.6892 9.67112 15.5081 10.1618 15.7843C10.7086 16.0923 11.3909 15.6042 11.7829 16.2172C12.214 15.7625 12.6389 16.4428 13.0683 16.2238C13.5276 16.6188 14.0986 16.4064 14.6035 16.5207C15.0713 16.6264 15.5533 16.6876 16.0025 16.8055C17.4821 17.196 18.9808 17.4267 20.4933 17.6036C21.1488 18.1772 22.0537 17.6325 22.7578 18.1394C23.3622 18.5743 24.1721 18.4949 24.8737 18.6502C25.6709 18.8268 26.5065 18.9608 27.3259 19.0943C28.0912 19.2193 28.8438 19.4302 29.6127 19.5733C30.7462 19.7843 31.8267 20.2755 32.9992 20.3624C33.4929 20.9446 34.2709 20.4424 34.8601 20.886C35.3543 21.2588 36.0862 21.3225 36.6856 21.4186C38.149 21.6528 39.4424 22.366 40.8647 22.6756C41.2016 22.7489 41.538 22.8268 41.928 22.9148C41.9796 22.5769 42.0186 22.324 42.0797 21.9244C42.4242 22.1439 42.6994 22.32 43.0717 22.5577Z" fill="white"/>
<path fill-rule="evenodd" clip-rule="evenodd" d="M20.0144 38.2436C19.939 38.1683 19.8738 38.103 19.8091 38.0378C19.6305 38.3135 19.4515 38.5886 19.2299 38.93C19.1424 38.6822 19.0862 38.5224 18.9962 38.2679C18.5916 38.3175 18.0443 38.2254 17.7584 38.4571C17.2946 38.8324 16.9911 38.2947 16.5884 38.4374C16.2233 38.5668 15.6926 38.3959 15.4271 38.6033C14.9941 38.9411 14.5576 38.752 14.1413 38.8587C13.7331 38.9629 13.3467 39.1541 12.9203 39.3195C12.6921 39.2477 12.4225 39.1627 12.0679 39.0514C11.9349 39.2993 11.8034 39.5467 11.5723 39.9791C11.4311 39.5234 11.3841 39.3731 11.3087 39.1289C10.0436 39.8562 8.52716 39.4445 7.26109 40.0813C7.22923 40.2259 7.2009 40.3509 7.12705 40.6812C7.01476 40.3534 6.96772 40.2143 6.91207 40.053C6.59138 40.1375 6.24793 40.228 5.89082 40.3226C5.86704 40.538 5.84327 40.7551 5.80836 41.0727C5.67685 40.9776 5.59643 40.9194 5.47503 40.8314C5.3248 40.9068 5.15181 40.9938 4.90749 41.1162C4.81341 40.9038 4.73248 40.7211 4.65459 40.5451C4.34705 40.7621 4.03849 40.9802 3.6738 41.2376C3.65963 41.3661 3.63586 41.5836 3.6045 41.8649C3.28734 41.7055 3.00257 41.5628 2.63534 41.3782C2.15228 42.0788 1.16441 42.4035 0.854335 43.3454C0.981298 43.4855 1.07083 43.5842 1.16086 43.6827C0.896827 43.9468 0.775427 43.8735 0.495201 43.2796C0.40567 43.2736 0.315634 43.2599 0.227115 43.2665C0.190695 43.269 0.157311 43.3155 0.0394542 43.405C0.125444 43.6023 0.221044 43.8213 0.326762 44.0642C0.238748 44.2913 0.137584 44.5522 0 44.9064C0.350535 44.7789 0.563993 44.702 0.829044 44.6054C0.745583 44.9342 0.683873 45.1785 0.578661 45.5923C1.06223 45.3738 1.36268 45.2377 1.70564 45.0829C1.62622 44.9852 1.55085 44.8932 1.4593 44.7809C1.69653 44.6605 1.93629 44.5381 2.22967 44.3884V45.317C2.54277 45.4764 2.80833 45.6114 3.09412 45.7571C3.74815 45.4855 4.41432 45.2083 5.09465 44.9256C5.39865 45.0444 6.56407 44.8942 7.09214 44.6545C7.18522 44.7389 7.28132 44.8265 7.42548 44.957C7.70571 44.8234 8.01173 44.6778 8.33344 44.5244C8.24441 44.4233 8.16146 44.3277 8.078 44.2326C8.1392 44.1875 8.22266 44.0839 8.26869 44.0986C8.79475 44.2619 9.28942 44.6635 9.86204 44.1284C9.96827 44.0292 10.34 44.2119 10.5879 44.2685C11.7229 44.5275 12.765 44.3656 13.6815 43.6286C13.8955 43.6868 14.1307 43.8047 14.3628 43.8001C14.6365 43.7951 15.0731 43.5457 15.153 43.6413C15.5652 44.136 15.7802 43.5336 16.0877 43.53C16.3876 43.5259 16.6649 43.5088 16.982 43.3646C17.5187 43.1198 18.1535 43.0682 18.7544 42.9923C20.7747 42.7379 22.7468 42.312 24.6968 41.7019C26.2021 41.2315 27.7358 40.8431 29.1829 40.2143C30.1577 39.7914 31.2174 39.3989 31.9832 38.7085C32.6752 38.0858 33.4946 37.5339 34.0343 36.6448C33.9584 36.5258 33.8668 36.3817 33.7612 36.2153C33.8198 36.147 33.9023 36.0519 33.9974 35.9427C33.6726 35.6351 33.3428 35.323 32.9721 34.972C32.5508 35.0994 32.1107 35.2775 31.8638 35.8845C31.8117 35.5365 31.7743 35.2835 31.7333 35.0104H31.3403C31.271 35.1905 31.2108 35.3488 31.1491 35.5107C31.0004 35.4161 30.8638 35.3291 30.6781 35.2107C30.5401 35.3139 30.403 35.4171 30.269 35.5172C30.0586 35.3226 29.8355 35.1147 29.6053 34.9017C29.2705 35.3139 29.0372 35.6832 28.7242 35.9634C28.4202 36.2355 27.7849 35.9725 27.6407 36.6721C27.6964 36.7586 27.7889 36.9017 27.9331 37.1248C27.6452 37.1394 27.3807 37.153 27.014 37.1718C27.1976 36.9659 27.2841 36.8683 27.4672 36.6619C27.1182 36.6802 26.8289 36.6144 26.6326 36.7206C26.1683 36.972 25.6923 37.1056 25.1854 37.2431C24.7079 37.3726 24.2501 37.4273 23.7707 37.4783C23.3443 37.5239 22.931 37.6862 22.5046 37.7353C22.0544 37.7864 21.5844 37.707 21.1434 37.792C20.7504 37.8673 20.3857 38.0889 20.0144 38.2436Z" fill="white"/>
<path fill-rule="evenodd" clip-rule="evenodd" d="M11.395 72.6084V73.7678C11.8655 74.2635 12.4087 74.5048 13.2286 74.4238C13.3051 74.2963 13.4461 74.0611 13.6121 73.7835C14.5236 74.3444 14.8706 73.1269 15.5863 73.3202C16.6141 72.6393 17.3804 71.6904 18.4346 71.096C18.5889 71.0091 18.6987 70.8431 18.8276 70.7121C19.7346 69.7931 20.7462 69.0075 21.8034 68.265C22.5308 67.7536 23.1873 67.1339 23.8357 66.5198C24.5434 65.8497 25.2814 65.2335 26.1419 64.7677C26.2966 64.6837 26.4038 64.5132 26.5354 64.3848C27.0573 63.8734 27.5288 63.2892 28.1196 62.8744C28.5956 62.5411 28.9471 62.0974 29.3684 61.7246C30.0969 61.0807 30.7023 60.2972 31.3523 59.5653C32.0063 58.8288 32.6801 58.1065 33.2871 57.3326C33.54 57.0093 33.6427 56.5683 33.8207 56.1657C33.414 55.8096 33.0716 55.5091 32.5436 55.0458C32.1535 54.8252 31.9578 55.5581 31.497 55.7266C31.3457 55.6107 31.2101 55.506 31.1176 55.4353C30.5743 55.5475 30.0635 55.6532 29.3209 55.807C27.7974 57.0539 26.0229 58.3781 24.3653 59.8627C23.5778 60.5674 22.6881 61.2264 21.7381 61.7772C21.0593 62.1707 20.5292 62.8208 19.9141 63.3377C18.2844 64.7065 16.647 66.1116 15.2697 67.7217C13.9763 69.2346 12.3935 70.5204 11.395 72.6084Z" fill="white"/>
</g>
<defs>
<clipPath id="clip0_103_1042">
<rect width="409.778" height="80" fill="white"/>
</clipPath>
</defs>
</svg>
