<svg width="229" height="80" viewBox="0 0 229 80" fill="none" xmlns="http://www.w3.org/2000/svg">
<path d="M1.44019 9.49426C4.02604 10.6715 6.46718 13.1298 7.77918 16.9636C11.3115 27.2855 22.5995 34.3192 32.3815 28.9741C36.2572 26.8564 42.9439 29.1457 45.4635 36.5098C48.9956 46.8316 60.2837 53.8651 70.0663 48.5204C71.0651 47.9742 72.2505 47.7212 73.5039 47.7722V55.116C69.7406 53.9249 65.642 54.1051 61.7786 56.2158C57.9031 58.3338 51.2162 56.0445 48.6966 48.6804C45.1637 38.3583 33.8758 31.3246 24.0938 36.6698C20.2182 38.7875 13.5318 36.4981 11.0118 29.1341C9.29659 24.1219 5.75251 19.885 1.44019 17.4644V9.49426Z" fill="white"/>
<path d="M8.32593 4.32849C11.5025 6.8135 14.0506 10.3316 15.4248 14.3472C17.9449 21.7113 24.6313 24.0007 28.5069 21.8829C38.2888 16.5378 49.5768 23.5714 53.1089 33.8934C55.6293 41.2575 62.3153 43.5468 66.1917 41.4291C68.5836 40.1218 71.0669 39.5549 73.504 39.5956V4.32849H8.32593Z" fill="white"/>
<path d="M1.44019 27.9772V35.7617C3.64213 38.0195 5.39687 40.8172 6.4553 43.91C8.97538 51.2744 15.6618 53.5637 19.5373 51.4457C29.3193 46.1002 40.6075 53.1346 44.1398 63.4562C46.6594 70.8202 53.3463 73.1095 57.2218 70.9916C62.7216 67.9863 68.6974 68.8946 73.5039 72.1002V63.9637C70.8154 62.3136 67.8021 62.1326 65.6534 63.3075C55.8707 68.6522 44.5827 61.6186 41.0507 51.297C38.5306 43.9327 31.8442 41.6433 27.9687 43.761C18.1867 49.1063 6.89853 42.0724 3.36625 31.7505C2.86871 30.2966 2.20883 29.0406 1.44019 27.9772Z" fill="white"/>
<path d="M43.9871 76.392C40.6275 73.8942 37.9248 70.253 36.4942 66.0728C33.9742 58.7088 27.2878 56.4195 23.4121 58.5367C15.4034 62.9132 6.38516 58.9916 1.44019 51.7617V76.392H43.9871Z" fill="white"/>
<path fill-rule="evenodd" clip-rule="evenodd" d="M104.301 19.682C107.986 19.682 111.205 20.2218 113.958 21.301C116.713 22.3801 119.001 23.8684 120.825 25.7663C122.647 27.6271 124.006 29.7669 124.899 32.1856C125.829 34.5676 126.295 37.042 126.295 39.6098V40.8377C126.295 43.294 125.829 45.7124 124.899 48.0946C124.006 50.476 122.647 52.6344 120.825 54.5698C119.001 56.5043 116.713 58.0494 113.958 59.2025C111.205 60.3564 107.986 60.9334 104.301 60.9334H89.5652V19.682H104.301ZM104.804 53.5653H97.4916V27.0503H104.804C106.925 27.0503 108.805 27.3482 110.442 27.9436C112.116 28.539 113.53 29.4133 114.684 30.5671C115.838 31.7208 116.713 33.116 117.307 34.7534C117.94 36.3538 118.257 38.1771 118.257 40.2238C118.257 42.1963 117.94 44.001 117.307 45.6389C116.713 47.2389 115.838 48.6344 114.684 49.8247C113.53 51.0158 112.116 51.9459 110.442 52.6158C108.805 53.2486 106.925 53.5653 104.804 53.5653Z" fill="white"/>
<path d="M132.165 58.1979C134.099 60.505 136.817 61.6589 140.314 61.6589H140.65C142.994 61.6589 144.948 61.1377 146.511 60.0961C148.073 59.0537 149.245 57.5094 150.027 55.4626C150.243 54.8969 150.429 54.2933 150.586 53.6509V60.7094H156.726V30.3436H148.966V48.2618C148.966 50.2343 148.39 51.7971 147.236 52.9511C146.119 54.1042 144.668 54.6812 142.881 54.6812C141.096 54.6812 139.681 54.1414 138.639 53.0626C137.597 51.9458 137.077 50.4573 137.077 48.5971V30.3436H129.318V47.9272C129.318 52.467 130.267 55.8909 132.165 58.1979Z" fill="white"/>
<path d="M162.847 60.7095V30.3992H168.988V37.8701C169.168 37.092 169.391 36.3695 169.657 35.7023C170.477 33.6186 171.686 32.0553 173.286 31.0136C174.924 29.9715 176.952 29.4503 179.371 29.4503H179.705C183.316 29.4503 186.05 30.6226 187.911 32.9672C189.771 35.2742 190.701 38.7354 190.701 43.3499V60.7095H182.943V42.6799C182.943 40.8191 182.403 39.3122 181.325 38.1585C180.282 37.0048 178.831 36.4279 176.97 36.4279C175.072 36.4279 173.527 37.0233 172.337 38.2141C171.183 39.3679 170.607 40.9308 170.607 42.9032V60.7095H162.847Z" fill="white"/>
<path fill-rule="evenodd" clip-rule="evenodd" d="M202.95 60.4308C204.924 61.3237 207.212 61.7706 209.816 61.7706C212.309 61.7706 214.524 61.3423 216.459 60.4865C218.432 59.6308 220.05 58.4211 221.315 56.8583C222.581 55.2954 223.437 53.4716 223.884 51.3876H216.739C216.403 52.5043 215.64 53.453 214.45 54.2344C213.259 54.9795 211.715 55.3512 209.816 55.3512C207.919 55.3512 206.355 54.9415 205.128 54.1229C203.9 53.2671 202.987 52.1132 202.393 50.6619C201.997 49.6736 201.732 48.594 201.599 47.4247H224.386V44.6336C224.386 41.9544 223.827 39.4611 222.711 37.1536C221.595 34.8095 219.92 32.9302 217.687 31.516C215.492 30.0648 212.756 29.3387 209.481 29.3387C206.988 29.3387 204.793 29.7854 202.895 30.6787C200.997 31.5345 199.397 32.7068 198.094 34.1951C196.829 35.6468 195.862 37.3214 195.192 39.2192C194.559 41.0796 194.243 43.015 194.243 45.0247V46.0849C194.243 48.0203 194.559 49.9177 195.192 51.7787C195.862 53.6389 196.829 55.3326 198.094 56.8583C199.397 58.3467 201.016 59.5379 202.95 60.4308ZM201.732 42.68C201.881 41.8273 202.102 41.0457 202.393 40.3354C202.735 39.5302 203.159 38.8286 203.665 38.2301C204.093 37.7223 204.581 37.289 205.128 36.9303C206.318 36.1491 207.77 35.7585 209.481 35.7585C211.193 35.7585 212.608 36.1305 213.724 36.8747C214.878 37.6188 215.734 38.6794 216.292 40.0565C216.432 40.4033 216.555 40.7679 216.66 41.1502C216.712 41.3353 216.758 41.5243 216.801 41.7177C216.869 42.0278 216.927 42.3485 216.974 42.68H201.732Z" fill="white"/>
</svg>
