<svg width="337" height="80" viewBox="0 0 337 80" fill="none" xmlns="http://www.w3.org/2000/svg">
<path d="M18.4941 6.76056H6.90142C6.27911 6.76056 5.77466 7.26501 5.77466 7.88732V29.7318L18.4941 6.76056Z" fill="white"/>
<path d="M5.77466 36.758C5.81128 36.7596 5.84824 36.7604 5.88553 36.7604H23.5597C24.9431 36.7604 26.0301 37.9423 25.9121 39.3183L24.3828 57.1546C24.1654 59.6891 27.5688 60.7221 28.8016 58.4958L47.1668 25.3281C48.0365 23.7573 46.8984 21.8311 45.1004 21.8311H27.4263C26.0428 21.8311 24.9558 20.6492 25.0738 19.2733L26.1467 6.76056H43.9821C60.4173 6.76056 67.7848 27.4327 55.0736 37.883L45.1369 46.0525C44.4861 46.5876 44.358 47.5361 44.8433 48.2257L61.9899 72.5904C62.5161 73.3375 61.982 74.3662 61.0687 74.3662H6.90142C6.27911 74.3662 5.77466 73.8614 5.77466 73.2394V36.758Z" fill="white"/>
<path d="M198.852 43.3583V60.4413H208.287V41.2615C208.287 39.0004 207.795 37.0268 206.808 35.3411C205.863 33.6141 204.506 32.2778 202.738 31.3325C200.969 30.3455 198.914 29.8521 196.57 29.8521C194.268 29.8521 192.232 30.3455 190.465 31.3325C189.996 31.5835 189.554 31.864 189.139 32.1732C188.915 32.34 188.7 32.5154 188.491 32.6992V16.9014H179.056V60.4413H188.491V43.3583C188.491 42.3306 188.718 41.4261 189.171 40.6449C189.623 39.8223 190.239 39.2055 191.02 38.7946C191.802 38.3423 192.705 38.1162 193.733 38.1162C195.214 38.1162 196.427 38.6097 197.373 39.5962C198.36 40.542 198.852 41.7959 198.852 43.3583Z" fill="white"/>
<path fill-rule="evenodd" clip-rule="evenodd" d="M94.0156 42.4951V60.4413H84.3345V16.9014H102.094C104.973 16.9014 107.502 17.4566 109.681 18.5662C111.859 19.6353 113.566 21.1361 114.8 23.0683C116.032 25.0006 116.649 27.2211 116.649 29.7288C116.649 32.2778 116.032 34.5187 114.8 36.4508C113.566 38.3423 111.84 39.8223 109.619 40.8913C108.381 41.4877 107.021 41.9179 105.539 42.1814L119.487 60.4413H108.016L95.0297 42.4951H94.0156ZM94.0156 35.3411H100.924C102.856 35.3411 104.337 34.8476 105.364 33.8606C106.433 32.8742 106.968 31.5377 106.968 29.8521C106.968 28.29 106.454 26.9949 105.425 25.9672C104.398 24.9389 102.918 24.425 100.986 24.425H94.0156V35.3411Z" fill="white"/>
<path fill-rule="evenodd" clip-rule="evenodd" d="M125.714 59.1461C128.263 60.4616 131.162 61.1196 134.409 61.1196C136.918 61.1196 139.22 60.6878 141.317 59.8244C143.413 58.9607 145.202 57.6656 146.683 55.9391L141.502 50.7586C140.597 51.7863 139.549 52.5676 138.356 53.1024C137.164 53.5954 135.829 53.8425 134.347 53.8425C132.745 53.8425 131.346 53.5134 130.154 52.8554C129.003 52.1567 128.099 51.1905 127.441 49.957C127.234 49.529 127.062 49.0734 126.925 48.5898L148.409 48.5387C148.573 47.7575 148.676 47.0791 148.716 46.5036C148.746 46.2885 148.768 46.0788 148.787 45.8737C148.798 45.7719 148.804 45.6718 148.811 45.5727C148.821 45.4236 148.829 45.2773 148.834 45.1337L148.838 44.9752L148.84 44.7767C148.84 41.8573 148.183 39.2671 146.867 37.0059C145.593 34.7447 143.825 32.977 141.564 31.7022C139.302 30.428 136.691 29.7904 133.732 29.7904C130.688 29.7904 127.955 30.4687 125.529 31.8254C123.103 33.1822 121.171 35.0534 119.732 37.4378C118.333 39.781 117.635 42.4537 117.635 45.455C117.635 48.4562 118.355 51.1493 119.793 53.5337C121.233 55.9182 123.207 57.7894 125.714 59.1461ZM126.927 42.1127C126.973 41.952 127.023 41.7947 127.076 41.6407C127.166 41.3809 127.266 41.1306 127.379 40.8912C127.996 39.6578 128.839 38.712 129.907 38.0545C131.017 37.3552 132.313 37.0059 133.793 37.0059C135.19 37.0059 136.362 37.3146 137.308 37.9314L137.435 38.0072L137.562 38.0881C137.669 38.1591 137.771 38.2339 137.871 38.3121C137.969 38.3885 138.065 38.4688 138.158 38.5524C138.731 39.0719 139.187 39.7282 139.528 40.5216C139.735 40.9859 139.902 41.5036 140.029 42.0752L126.927 42.1127Z" fill="white"/>
<path d="M165.422 61.1196C162.337 61.1196 159.541 60.4412 157.033 59.0845C154.526 57.7278 152.553 55.8567 151.113 53.4721C149.674 51.0876 148.954 48.415 148.954 45.455C148.954 42.4537 149.674 39.781 151.113 37.4378C152.594 35.0534 154.587 33.1822 157.095 31.8254C159.603 30.4687 162.419 29.7904 165.545 29.7904C167.887 29.7904 170.025 30.2019 171.958 31.0239C172.943 31.4139 173.873 31.9063 174.745 32.5011C175.619 33.098 176.438 33.7978 177.2 34.6011L171.156 40.6448C170.457 39.8635 169.635 39.2881 168.69 38.9178C168.263 38.7434 167.805 38.6102 167.314 38.5178C167.09 38.4755 166.86 38.4419 166.623 38.4171C166.379 38.3913 166.127 38.3747 165.868 38.3676C165.761 38.3643 165.654 38.3627 165.545 38.3627C165.211 38.3627 164.887 38.3814 164.571 38.4182L164.401 38.4402L164.295 38.4556C164.186 38.4727 164.077 38.4925 163.968 38.514C163.229 38.6625 162.542 38.9205 161.905 39.2881C160.878 39.8635 160.056 40.6855 159.439 41.7545C158.863 42.7827 158.575 43.9954 158.575 45.3933C158.575 46.7913 158.863 48.0249 159.439 49.0933C160.056 50.1622 160.899 51.0052 161.967 51.6219C163.035 52.2386 164.229 52.5472 165.545 52.5472C166.779 52.5472 167.867 52.3415 168.812 51.9306C169.799 51.4783 170.642 50.8615 171.341 50.0803L177.324 56.124C175.761 57.7684 173.993 59.0223 172.02 59.8861C170.046 60.708 167.847 61.1196 165.422 61.1196Z" fill="white"/>
<path fill-rule="evenodd" clip-rule="evenodd" d="M224.4 61.058C221.646 61.058 219.179 60.3796 217.001 59.0223C214.862 57.6656 213.156 55.8159 211.882 53.4721C210.648 51.129 210.031 48.4562 210.031 45.455C210.031 42.4537 210.648 39.7811 211.882 37.4379C213.156 35.0941 214.862 33.2444 217.001 31.8871C219.179 30.5304 221.646 29.8521 224.4 29.8521C226.415 29.8521 228.224 30.2426 229.828 31.0239C230.906 31.5361 231.851 32.1808 232.664 32.9577V30.4687H241.914V60.4412H232.664V58.0127C232.108 58.5381 231.484 59.0036 230.792 59.4091C230.666 59.4834 230.536 59.5561 230.405 59.6265C230.237 59.7161 230.064 59.8025 229.889 59.8861C228.245 60.6674 226.415 61.058 224.4 61.058ZM226.313 52.5473C228.328 52.5473 229.951 51.8893 231.184 50.5739C232.418 49.2171 233.034 47.5104 233.034 45.455C233.034 44.7557 232.962 44.0977 232.818 43.481C232.674 42.8642 232.459 42.2887 232.171 41.7545C231.636 40.6855 230.855 39.8635 229.828 39.2881C229.272 38.941 228.665 38.6917 228.006 38.5398C227.493 38.4215 226.95 38.3627 226.374 38.3627C225.717 38.3627 225.095 38.4397 224.511 38.5938C224.153 38.6878 223.809 38.8105 223.478 38.9618C223.267 39.0587 223.06 39.1675 222.859 39.2881C221.872 39.8635 221.071 40.6855 220.453 41.7545C219.878 42.8235 219.591 44.057 219.591 45.455C219.591 46.8117 219.878 48.0249 220.453 49.0933C221.029 50.1622 221.831 51.0052 222.859 51.622C223.886 52.2386 225.038 52.5473 226.313 52.5473Z" fill="white"/>
<path d="M255.527 30.4687H246.091V60.4412H255.527V43.975C255.527 42.0423 255.98 40.6035 256.883 39.6578C257.83 38.6713 259.084 38.1778 260.646 38.1778C261.428 38.1778 262.126 38.3011 262.744 38.5481C263.359 38.7946 263.874 39.1439 264.285 39.5962L269.896 32.5039C269.075 31.5993 268.108 30.9419 266.998 30.5304C265.93 30.0781 264.675 29.8521 263.236 29.8521C259.947 29.8521 257.378 30.8187 255.527 32.7509V30.4687Z" fill="white"/>
<path fill-rule="evenodd" clip-rule="evenodd" d="M281.805 73.8851C278.516 73.8851 275.617 73.3093 273.11 72.1589C270.642 71.049 268.69 69.4659 267.251 67.4096L273.047 61.6126C274.116 62.8873 275.309 63.8535 276.624 64.5115C277.981 65.1684 279.604 65.4975 281.496 65.4975C283.84 65.4975 285.669 64.9228 286.985 63.7713C288.341 62.6199 289.021 60.9958 289.021 58.899V57.006C288.379 57.5198 287.659 57.9654 286.862 58.344C285.217 59.1252 283.388 59.5158 281.373 59.5158C278.617 59.5158 276.172 58.8584 274.034 57.5423C271.896 56.2269 270.211 54.4383 268.977 52.177C267.743 49.9158 267.127 47.4081 267.127 44.6534C267.127 41.8573 267.743 39.3497 268.977 37.1291C270.211 34.8679 271.896 33.1003 274.034 31.8255C276.172 30.51 278.617 29.8521 281.373 29.8521C283.429 29.8521 285.259 30.2426 286.862 31.0239C287.01 31.0899 287.154 31.1586 287.296 31.2302C287.995 31.5834 288.632 32.001 289.206 32.4829V30.4687H298.456V58.6526C298.456 61.7363 297.736 64.409 296.297 66.6693C294.859 68.9307 292.886 70.6986 290.377 71.973C287.868 73.2484 285.012 73.8851 281.805 73.8851ZM283.162 51.129C284.478 51.129 285.608 50.8407 286.553 50.2652C286.795 50.1238 287.023 49.9708 287.236 49.8069C287.888 49.3046 288.401 48.6967 288.773 47.9835C288.933 47.6898 289.068 47.3856 289.179 47.0703C289.324 46.6615 289.43 46.234 289.495 45.7884C289.549 45.4225 289.575 45.044 289.575 44.6534C289.575 43.4199 289.308 42.3096 288.773 41.3232C288.281 40.3361 287.539 39.5549 286.553 38.9794C285.608 38.4039 284.478 38.1162 283.162 38.1162C282.773 38.1162 282.399 38.1432 282.037 38.1965L281.848 38.2274L281.681 38.2581C281.323 38.3303 280.978 38.4297 280.648 38.5568C280.463 38.6278 280.283 38.7076 280.108 38.7957C279.993 38.8534 279.882 38.9145 279.77 38.9794C278.783 39.5549 278.022 40.3361 277.488 41.3232C277.209 41.8371 277.003 42.3844 276.87 42.9654C276.747 43.4997 276.686 44.0625 276.686 44.6534C276.686 45.8044 276.953 46.8937 277.488 47.922C278.022 48.9084 278.762 49.6897 279.708 50.2652C280.238 50.5744 280.816 50.801 281.441 50.9441C281.98 51.0674 282.553 51.129 283.162 51.129Z" fill="white"/>
<path fill-rule="evenodd" clip-rule="evenodd" d="M308.755 59.1461C311.303 60.4616 314.202 61.1196 317.449 61.1196C319.957 61.1196 322.26 60.6878 324.356 59.8244C326.454 58.9607 328.241 57.6656 329.722 55.9391L324.541 50.7586C323.637 51.7863 322.589 52.5676 321.396 53.1024C320.205 53.5954 318.868 53.8425 317.388 53.8425C315.785 53.8425 314.387 53.5134 313.194 52.8554C312.372 52.3569 311.677 51.722 311.107 50.9507C311.015 50.828 310.929 50.7015 310.844 50.5716C310.716 50.3752 310.594 50.17 310.481 49.957C310.274 49.529 310.102 49.0734 309.964 48.5898L331.449 48.5387C331.53 48.153 331.597 47.7921 331.647 47.4565C331.7 47.1121 331.736 46.7947 331.758 46.5036C331.786 46.2863 331.81 46.0739 331.829 45.867C331.863 45.4863 331.881 45.1227 331.881 44.7767C331.881 41.8573 331.223 39.2671 329.908 37.0059C328.632 34.7447 326.865 32.977 324.604 31.7022C322.342 30.428 319.732 29.7904 316.772 29.7904C313.73 29.7904 310.995 30.4687 308.568 31.8254C306.143 33.1822 304.211 35.0534 302.772 37.4378C301.375 39.781 300.675 42.4537 300.675 45.455C300.675 48.4562 301.394 51.1493 302.834 53.5337C304.273 55.9182 306.246 57.7894 308.755 59.1461ZM309.969 42.1127C310.091 41.6802 310.241 41.2725 310.419 40.8912C310.772 40.187 311.197 39.5769 311.696 39.0608C311.871 38.8799 312.055 38.7104 312.249 38.5524C312.47 38.3715 312.702 38.2053 312.948 38.0545C314.059 37.3552 315.353 37.0059 316.833 37.0059C318.231 37.0059 319.403 37.3146 320.348 37.9314C320.726 38.1514 321.066 38.4133 321.371 38.7175C321.864 39.2089 322.264 39.8101 322.568 40.5216C322.774 40.9859 322.941 41.5036 323.069 42.0752L309.969 42.1127Z" fill="white"/>
</svg>
