<svg width="177" height="27" viewBox="0 0 177 27" fill="none" xmlns="http://www.w3.org/2000/svg">
<path d="M0.624 2.096H15.888C17.5733 2.096 18.416 2.93867 18.416 4.624V10C18.416 11.3013 17.8293 11.984 16.656 12.048C17.8293 12.1547 18.416 12.816 18.416 14.032V19.472C18.416 21.1573 17.5733 22 15.888 22H0.624V2.096ZM13.456 19.28V13.968C13.456 13.5627 13.392 13.296 13.264 13.168C13.1573 13.04 12.8907 12.976 12.464 12.976H5.808V20.112H12.368C12.7733 20.112 13.0507 20.0587 13.2 19.952C13.3707 19.824 13.456 19.6 13.456 19.28ZM13.456 10.096V4.976C13.456 4.54933 13.392 4.28267 13.264 4.176C13.1573 4.048 12.8907 3.984 12.464 3.984H5.808V11.088H12.464C12.8907 11.088 13.1573 11.0347 13.264 10.928C13.392 10.8 13.456 10.5227 13.456 10.096ZM34.4445 19.12V9.36C34.4445 8.95467 34.3805 8.688 34.2525 8.56C34.1245 8.432 33.8578 8.368 33.4525 8.368H28.8765C28.4498 8.368 28.1725 8.432 28.0445 8.56C27.9378 8.688 27.8845 8.95467 27.8845 9.36V19.12C27.8845 19.5467 27.9378 19.824 28.0445 19.952C28.1725 20.0587 28.4498 20.112 28.8765 20.112H33.4525C33.8578 20.112 34.1245 20.0587 34.2525 19.952C34.3805 19.824 34.4445 19.5467 34.4445 19.12ZM25.4845 6.48H36.8445C38.5298 6.48 39.3725 7.32267 39.3725 9.008V19.472C39.3725 21.1573 38.5298 22 36.8445 22H25.4845C23.7992 22 22.9565 21.1573 22.9565 19.472V9.008C22.9565 7.32267 23.7992 6.48 25.4845 6.48ZM49.5953 20.112H53.9153C54.6833 20.112 55.0673 19.7707 55.0673 19.088V9.392C55.0673 8.70933 54.6833 8.368 53.9153 8.368H49.5953C49.1686 8.368 48.8913 8.432 48.7633 8.56C48.6566 8.688 48.6033 8.95467 48.6033 9.36V19.12C48.6033 19.5467 48.6566 19.824 48.7633 19.952C48.8913 20.0587 49.1686 20.112 49.5953 20.112ZM55.0673 0.591999H59.9953V22H55.0673V20.944C54.8113 21.648 54.2033 22 53.2433 22H46.2033C44.5179 22 43.6753 21.1573 43.6753 19.472V9.008C43.6753 7.32267 44.5179 6.48 46.2033 6.48H53.2433C54.2033 6.48 54.8113 6.832 55.0673 7.536V0.591999ZM69.735 26.512H65.991V24.624H68.103C68.8283 24.624 69.383 24.5067 69.767 24.272C70.151 24.0587 70.4603 23.696 70.695 23.184L71.239 22H69.383L63.047 6.48H68.167L72.519 18.768L76.871 6.48H81.831L75.079 22.864C74.5883 24.1653 73.9803 25.0933 73.255 25.648C72.5297 26.224 71.3563 26.512 69.735 26.512ZM90.064 20.112H94.384C95.152 20.112 95.536 19.7707 95.536 19.088V9.392C95.536 8.70933 95.152 8.368 94.384 8.368H90.064C89.6373 8.368 89.36 8.432 89.232 8.56C89.1253 8.688 89.072 8.95467 89.072 9.36V19.12C89.072 19.5467 89.1253 19.824 89.232 19.952C89.36 20.0587 89.6373 20.112 90.064 20.112ZM100.464 21.2H100.496V23.984C100.496 25.6693 99.6533 26.512 97.968 26.512H84.912V24.624H94.544C94.9707 24.624 95.2373 24.56 95.344 24.432C95.472 24.304 95.536 24.0373 95.536 23.632V20.944C95.28 21.648 94.672 22 93.712 22H86.672C84.9867 22 84.144 21.1573 84.144 19.472V9.008C84.144 7.32267 84.9867 6.48 86.672 6.48H93.712C94.672 6.48 95.28 6.832 95.536 7.536V6.48H100.464V21.2ZM116.224 6.48H121.152V22H116.224V20.944C115.968 21.648 115.36 22 114.4 22H107.36C105.674 22 104.832 21.1573 104.832 19.472V6.48H109.76V19.12C109.76 19.5467 109.813 19.824 109.92 19.952C110.048 20.0587 110.325 20.112 110.752 20.112H115.072C115.84 20.112 116.224 19.7707 116.224 19.088V6.48ZM131.595 20.112H135.915C136.683 20.112 137.067 19.7707 137.067 19.088V9.392C137.067 8.70933 136.683 8.368 135.915 8.368H131.595C131.169 8.368 130.891 8.432 130.763 8.56C130.657 8.688 130.603 8.95467 130.603 9.36V19.12C130.603 19.5467 130.657 19.824 130.763 19.952C130.891 20.0587 131.169 20.112 131.595 20.112ZM137.067 6.48H141.995V22H137.067V20.944C136.811 21.648 136.203 22 135.243 22H128.203C126.518 22 125.675 21.1573 125.675 19.472V9.008C125.675 7.32267 126.518 6.48 128.203 6.48H135.243C136.203 6.48 136.811 6.832 137.067 7.536V6.48ZM154.903 6.448H157.335V8.56H153.975C152.46 8.56 151.703 9.37067 151.703 10.992V22H146.743V6.48H151.703V8.368C152.13 7.088 153.196 6.448 154.903 6.448ZM165.658 20.112H169.978C170.746 20.112 171.13 19.7707 171.13 19.088V9.392C171.13 8.70933 170.746 8.368 169.978 8.368H165.658C165.231 8.368 164.954 8.432 164.826 8.56C164.719 8.688 164.666 8.95467 164.666 9.36V19.12C164.666 19.5467 164.719 19.824 164.826 19.952C164.954 20.0587 165.231 20.112 165.658 20.112ZM171.13 0.591999H176.058V22H171.13V20.944C170.874 21.648 170.266 22 169.306 22H162.266C160.58 22 159.738 21.1573 159.738 19.472V9.008C159.738 7.32267 160.58 6.48 162.266 6.48H169.306C170.266 6.48 170.874 6.832 171.13 7.536V0.591999Z" fill="#333"/>
</svg>
